<?xml version="1.0" encoding="utf-8"?>
<!-- Generator: Adobe Illustrator 24.2.3, SVG Export Plug-In . SVG Version: 6.00 Build 0)  -->
<svg width="299" height="68" version="1.1" id="Layer_1" xmlns="http://www.w3.org/2000/svg" xmlns:xlink="http://www.w3.org/1999/xlink" x="0px" y="0px"
	 viewBox="0 0 298.94 67.79" style="enable-background:new 0 0 298.94 67.79;" xml:space="preserve">
<style type="text/css">
	.st0{fill:#FFB441;stroke:#231F20;stroke-miterlimit:10;}
</style>
<g>
	<path class="st0" d="M0.5,0.5h11.46l14.88,26.4h0.12V0.5h10.5v42.84H26l-14.88-26.7H11v26.7H0.5V0.5z"/>
	<path class="st0" d="M45.08,0.5h11.16v42.84H45.08V0.5z"/>
	<path class="st0" d="M63.98,0.5h21.84c7.56,0,15,3.42,15,12.06c0,4.62-2.22,9-6.72,10.74v0.12c4.56,1.08,5.88,6.18,6.24,10.26
		c0.12,1.8,0.3,8.1,1.8,9.66H91.1c-0.96-1.44-1.14-5.64-1.26-6.84c-0.3-4.32-1.02-8.76-6.24-8.76h-8.46v15.6H63.98V0.5z M75.14,19.1
		h9.36c3.36,0,5.16-1.8,5.16-5.04c0-3.18-2.52-4.62-5.64-4.62h-8.88V19.1z"/>
	<path class="st0" d="M129.5,43.34h-12.84L103.16,0.5h11.64l8.4,31.86h0.12l8.4-31.86h11.64L129.5,43.34z"/>
	<path class="st0" d="M155.18,0.5h11.34l16.02,42.84H170.9l-2.64-7.68h-14.94l-2.7,7.68h-11.46L155.18,0.5z M155.9,27.38h9.72
		l-4.74-15h-0.12L155.9,27.38z"/>
	<path class="st0" d="M185.66,0.5h11.46L212,26.9h0.12V0.5h10.5v42.84h-11.46l-14.88-26.7h-0.12v26.7h-10.5V0.5z"/>
	<path class="st0" d="M241.88,0.5h11.34l16.02,42.84H257.6l-2.64-7.68h-14.94l-2.7,7.68h-11.46L241.88,0.5z M242.6,27.38h9.72
		l-4.74-15h-0.12L242.6,27.38z"/>
</g>
<g>
	<path d="M10.44,53.95c-0.42-1.64-1.48-2.84-3.56-2.84c-3.06,0-4.34,2.7-4.34,5.44s1.28,5.44,4.34,5.44c2.22,0,3.44-1.66,3.64-3.74
		h2.44c-0.2,3.42-2.62,5.78-6.08,5.78c-4.28,0-6.84-3.4-6.84-7.48c0-4.08,2.56-7.48,6.84-7.48c3.22,0.02,5.76,1.8,6.06,4.88H10.44z"
		/>
	<path d="M14.98,49.41h2.28v14.28h-2.28V49.41z"/>
	<path d="M19.8,49.41h2.28v2.16H19.8V49.41z M19.8,53.35h2.28v10.34H19.8V53.35z"/>
	<path d="M24.56,53.35h2.16v1.52l0.04,0.04c0.68-1.14,1.86-1.84,3.22-1.84c2.24,0,3.66,1.2,3.66,3.52v7.1h-2.28v-6.5
		c-0.04-1.62-0.68-2.32-2.02-2.32c-1.52,0-2.5,1.2-2.5,2.72v6.1h-2.28V53.35z"/>
	<path d="M36.1,49.41h2.28v2.16H36.1V49.41z M36.1,53.35h2.28v10.34H36.1V53.35z"/>
	<path d="M47.84,56.81c-0.18-1.26-1.1-1.94-2.36-1.94c-1.18,0-2.84,0.62-2.84,3.76c0,1.72,0.76,3.54,2.74,3.54
		c1.32,0,2.24-0.88,2.46-2.36h2.28c-0.42,2.68-2.08,4.16-4.74,4.16c-3.24,0-5.02-2.3-5.02-5.34c0-3.12,1.7-5.56,5.1-5.56
		c2.4,0,4.44,1.2,4.66,3.74H47.84z"/>
	<path d="M60.64,61.39c0,0.56,0.12,0.78,0.54,0.78c0.14,0,0.32,0,0.56-0.04v1.58c-0.34,0.12-1.06,0.26-1.44,0.26
		c-0.92,0-1.58-0.32-1.76-1.26c-0.9,0.88-2.36,1.26-3.58,1.26c-1.86,0-3.54-1-3.54-3.02c0-2.58,2.06-3,3.98-3.22
		c1.64-0.3,3.1-0.12,3.1-1.46c0-1.18-1.22-1.4-2.14-1.4c-1.28,0-2.18,0.52-2.28,1.64H51.8c0.16-2.66,2.42-3.44,4.7-3.44
		c2.02,0,4.14,0.82,4.14,3V61.39z M58.36,58.51c-0.7,0.46-1.8,0.44-2.8,0.62c-0.98,0.16-1.86,0.52-1.86,1.72
		c0,1.02,1.3,1.32,2.1,1.32c1,0,2.56-0.52,2.56-1.96V58.51z"/>
	<path d="M63.16,49.41h2.28v14.28h-2.28V49.41z"/>
	<path d="M67.7,57.17h5.82v2.16H67.7V57.17z"/>
	<path d="M85.26,63.15c0,3.1-1.82,4.64-5.08,4.64c-2.08,0-4.42-0.8-4.62-3.22h2.28c0.28,1.3,1.32,1.52,2.48,1.52
		c1.84,0,2.66-0.94,2.66-2.64v-1.58h-0.04c-0.64,1.14-1.82,1.82-3.1,1.82c-3.28,0-4.64-2.48-4.64-5.44c0-2.78,1.74-5.18,4.68-5.18
		c1.3,0,2.48,0.54,3.06,1.7h0.04v-1.42h2.28V63.15z M82.98,58.29c0-1.78-0.8-3.42-2.78-3.42c-2.02,0-2.72,1.88-2.72,3.6
		c0,1.7,0.82,3.42,2.72,3.42C82.22,61.89,82.98,60.05,82.98,58.29z"/>
	<path d="M87.56,53.35h2.14v2h0.04c0.26-1.1,1.62-2.28,3.02-2.28c0.52,0,0.66,0.04,0.86,0.06v2.2c-0.32-0.04-0.66-0.1-0.98-0.1
		c-1.56,0-2.8,1.26-2.8,3.54v4.92h-2.28V53.35z"/>
	<path d="M103.26,61.39c0,0.56,0.12,0.78,0.54,0.78c0.14,0,0.32,0,0.56-0.04v1.58c-0.34,0.12-1.06,0.26-1.44,0.26
		c-0.92,0-1.58-0.32-1.76-1.26c-0.9,0.88-2.36,1.26-3.58,1.26c-1.86,0-3.54-1-3.54-3.02c0-2.58,2.06-3,3.98-3.22
		c1.64-0.3,3.1-0.12,3.1-1.46c0-1.18-1.22-1.4-2.14-1.4c-1.28,0-2.18,0.52-2.28,1.64h-2.28c0.16-2.66,2.42-3.44,4.7-3.44
		c2.02,0,4.14,0.82,4.14,3V61.39z M100.98,58.51c-0.7,0.46-1.8,0.44-2.8,0.62c-0.98,0.16-1.86,0.52-1.86,1.72
		c0,1.02,1.3,1.32,2.1,1.32c1,0,2.56-0.52,2.56-1.96V58.51z"/>
	<path d="M115.46,63.69h-2.16v-1.4h-0.04c-0.6,1.18-1.9,1.68-3.2,1.68c-3.26,0-4.84-2.42-4.84-5.52c0-3.74,2.22-5.38,4.48-5.38
		c1.3,0,2.74,0.48,3.44,1.62h0.04v-5.28h2.28V63.69z M110.36,62.17c2.04,0,2.9-1.86,2.9-3.66c0-2.28-1.1-3.64-2.86-3.64
		c-2.14,0-2.9,1.9-2.9,3.76C107.5,60.41,108.38,62.17,110.36,62.17z"/>
	<path d="M119.72,59.11c0,1.62,0.88,3.06,2.78,3.06c1.32,0,2.12-0.58,2.52-1.72h2.16c-0.5,2.26-2.42,3.52-4.68,3.52
		c-3.24,0-5.06-2.26-5.06-5.44c0-2.94,1.92-5.46,5-5.46c3.26,0,5.26,2.94,4.88,6.04H119.72z M125.04,57.61
		c-0.08-1.44-1.06-2.74-2.6-2.74c-1.58,0-2.66,1.2-2.72,2.74H125.04z"/>
	<path d="M133.6,53.35h2.48l2.62,7.94h0.04l2.52-7.94h2.36l-3.7,10.34h-2.56L133.6,53.35z"/>
	<path d="M153.66,61.39c0,0.56,0.12,0.78,0.54,0.78c0.14,0,0.32,0,0.56-0.04v1.58c-0.34,0.12-1.06,0.26-1.44,0.26
		c-0.92,0-1.58-0.32-1.76-1.26c-0.9,0.88-2.36,1.26-3.58,1.26c-1.86,0-3.54-1-3.54-3.02c0-2.58,2.06-3,3.98-3.22
		c1.64-0.3,3.1-0.12,3.1-1.46c0-1.18-1.22-1.4-2.14-1.4c-1.28,0-2.18,0.52-2.28,1.64h-2.28c0.16-2.66,2.42-3.44,4.7-3.44
		c2.02,0,4.14,0.82,4.14,3V61.39z M151.38,58.51c-0.7,0.46-1.8,0.44-2.8,0.62c-0.98,0.16-1.86,0.52-1.86,1.72
		c0,1.02,1.3,1.32,2.1,1.32c1,0,2.56-0.52,2.56-1.96V58.51z"/>
	<path d="M156.12,53.35h2.14v2h0.04c0.26-1.1,1.62-2.28,3.02-2.28c0.52,0,0.66,0.04,0.86,0.06v2.2c-0.32-0.04-0.66-0.1-0.98-0.1
		c-1.56,0-2.8,1.26-2.8,3.54v4.92h-2.28V53.35z"/>
	<path d="M163.22,49.41h2.28v2.16h-2.28V49.41z M163.22,53.35h2.28v10.34h-2.28V53.35z"/>
	<path d="M176.64,61.39c0,0.56,0.12,0.78,0.54,0.78c0.14,0,0.32,0,0.56-0.04v1.58c-0.34,0.12-1.06,0.26-1.44,0.26
		c-0.92,0-1.58-0.32-1.76-1.26c-0.9,0.88-2.36,1.26-3.58,1.26c-1.86,0-3.54-1-3.54-3.02c0-2.58,2.06-3,3.98-3.22
		c1.64-0.3,3.1-0.12,3.1-1.46c0-1.18-1.22-1.4-2.14-1.4c-1.28,0-2.18,0.52-2.28,1.64h-2.28c0.16-2.66,2.42-3.44,4.7-3.44
		c2.02,0,4.14,0.82,4.14,3V61.39z M174.36,58.51c-0.7,0.46-1.8,0.44-2.8,0.62c-0.98,0.16-1.86,0.52-1.86,1.72
		c0,1.02,1.3,1.32,2.1,1.32c1,0,2.56-0.52,2.56-1.96V58.51z"/>
	<path d="M179.1,53.35h2.16v1.52l0.04,0.04c0.68-1.14,1.86-1.84,3.22-1.84c2.24,0,3.66,1.2,3.66,3.52v7.1h-2.28v-6.5
		c-0.04-1.62-0.68-2.32-2.02-2.32c-1.52,0-2.5,1.2-2.5,2.72v6.1h-2.28V53.35z"/>
	<path d="M189.54,53.35h1.72v-3.1h2.28v3.1h2.06v1.7h-2.06v5.52c0,0.94,0.08,1.42,1.1,1.42c0.32,0,0.64,0,0.96-0.08v1.76
		c-0.5,0.04-0.98,0.12-1.48,0.12c-2.38,0-2.82-0.92-2.86-2.64v-6.1h-1.72V53.35z"/>
	<path d="M211.46,61.39c0,0.56,0.12,0.78,0.54,0.78c0.14,0,0.32,0,0.56-0.04v1.58c-0.34,0.12-1.06,0.26-1.44,0.26
		c-0.92,0-1.58-0.32-1.76-1.26c-0.9,0.88-2.36,1.26-3.58,1.26c-1.86,0-3.54-1-3.54-3.02c0-2.58,2.06-3,3.98-3.22
		c1.64-0.3,3.1-0.12,3.1-1.46c0-1.18-1.22-1.4-2.14-1.4c-1.28,0-2.18,0.52-2.28,1.64h-2.28c0.16-2.66,2.42-3.44,4.7-3.44
		c2.02,0,4.14,0.82,4.14,3V61.39z M209.18,58.51c-0.7,0.46-1.8,0.44-2.8,0.62c-0.98,0.16-1.86,0.52-1.86,1.72
		c0,1.02,1.3,1.32,2.1,1.32c1,0,2.56-0.52,2.56-1.96V58.51z"/>
	<path d="M213.92,53.35h2.16v1.52l0.04,0.04c0.68-1.14,1.86-1.84,3.22-1.84c2.24,0,3.66,1.2,3.66,3.52v7.1h-2.28v-6.5
		c-0.04-1.62-0.68-2.32-2.02-2.32c-1.52,0-2.5,1.2-2.5,2.72v6.1h-2.28V53.35z"/>
	<path d="M225.39,53.35h2.16v1.52l0.04,0.04c0.68-1.14,1.86-1.84,3.22-1.84c2.24,0,3.66,1.2,3.66,3.52v7.1h-2.28v-6.5
		c-0.04-1.62-0.68-2.32-2.02-2.32c-1.52,0-2.5,1.2-2.5,2.72v6.1h-2.28V53.35z"/>
	<path d="M236.39,58.51c0-3.16,1.9-5.44,5.22-5.44s5.22,2.28,5.22,5.44c0,3.18-1.9,5.46-5.22,5.46S236.39,61.69,236.39,58.51z
		 M244.56,58.51c0-1.78-0.9-3.64-2.94-3.64s-2.94,1.86-2.94,3.64c0,1.8,0.9,3.66,2.94,3.66S244.56,60.31,244.56,58.51z"/>
	<path d="M247.69,53.35h1.72v-3.1h2.28v3.1h2.06v1.7h-2.06v5.52c0,0.94,0.08,1.42,1.1,1.42c0.32,0,0.64,0,0.96-0.08v1.76
		c-0.5,0.04-0.98,0.12-1.48,0.12c-2.38,0-2.82-0.92-2.86-2.64v-6.1h-1.72V53.35z"/>
	<path d="M264.06,61.39c0,0.56,0.12,0.78,0.54,0.78c0.14,0,0.32,0,0.56-0.04v1.58c-0.34,0.12-1.06,0.26-1.44,0.26
		c-0.92,0-1.58-0.32-1.76-1.26c-0.9,0.88-2.36,1.26-3.58,1.26c-1.86,0-3.54-1-3.54-3.02c0-2.58,2.06-3,3.98-3.22
		c1.64-0.3,3.1-0.12,3.1-1.46c0-1.18-1.22-1.4-2.14-1.4c-1.28,0-2.18,0.52-2.28,1.64h-2.28c0.16-2.66,2.42-3.44,4.7-3.44
		c2.02,0,4.14,0.82,4.14,3V61.39z M261.78,58.51c-0.7,0.46-1.8,0.44-2.8,0.62c-0.98,0.16-1.86,0.52-1.86,1.72
		c0,1.02,1.3,1.32,2.1,1.32c1,0,2.56-0.52,2.56-1.96V58.51z"/>
	<path d="M265.47,53.35h1.72v-3.1h2.28v3.1h2.06v1.7h-2.06v5.52c0,0.94,0.08,1.42,1.1,1.42c0.32,0,0.64,0,0.96-0.08v1.76
		c-0.5,0.04-0.98,0.12-1.48,0.12c-2.38,0-2.82-0.92-2.86-2.64v-6.1h-1.72V53.35z"/>
	<path d="M273.23,49.41h2.28v2.16h-2.28V49.41z M273.23,53.35h2.28v10.34h-2.28V53.35z"/>
	<path d="M277.51,58.51c0-3.16,1.9-5.44,5.22-5.44c3.32,0,5.22,2.28,5.22,5.44c0,3.18-1.9,5.46-5.22,5.46
		C279.41,63.97,277.51,61.69,277.51,58.51z M285.68,58.51c0-1.78-0.9-3.64-2.94-3.64c-2.04,0-2.94,1.86-2.94,3.64
		c0,1.8,0.9,3.66,2.94,3.66C284.77,62.17,285.68,60.31,285.68,58.51z"/>
	<path d="M289.85,53.35h2.16v1.52l0.04,0.04c0.68-1.14,1.86-1.84,3.22-1.84c2.24,0,3.66,1.2,3.66,3.52v7.1h-2.28v-6.5
		c-0.04-1.62-0.68-2.32-2.02-2.32c-1.52,0-2.5,1.2-2.5,2.72v6.1h-2.28V53.35z"/>
</g>
<g>
</g>
<g>
</g>
<g>
</g>
<g>
</g>
<g>
</g>
<g>
</g>
</svg>
