<svg width="935" height="421" xmlns="http://www.w3.org/2000/svg" xmlns:xlink="http://www.w3.org/1999/xlink" xml:space="preserve" overflow="hidden"><g transform="translate(-325 -330)"><g><path d="M1164.77 470.673C1159.66 470.673 1155.31 471.05 1151.72 471.803 1148.12 472.556 1145.19 473.685 1142.93 475.191 1140.67 476.697 1139.02 478.516 1137.97 480.65 1136.93 482.783 1136.41 485.23 1136.41 487.991 1136.41 492.676 1137.89 496.357 1140.86 499.034 1143.83 501.711 1147.95 503.049 1153.22 503.049 1157.66 503.049 1161.73 501.92 1165.46 499.661 1169.18 497.402 1172.96 494.098 1176.81 489.748L1176.81 470.673ZM927.476 401.278C930.572 401.278 933.123 401.404 935.131 401.655 937.139 401.906 938.749 402.261 939.962 402.721 941.175 403.182 942.033 403.725 942.535 404.353 943.037 404.98 943.288 405.712 943.288 406.549L943.288 518.233C943.288 519.07 943.037 519.802 942.535 520.429 942.033 521.057 941.175 521.58 939.962 521.998 938.749 522.416 937.139 522.73 935.131 522.939 933.123 523.148 930.572 523.253 927.476 523.253 924.381 523.253 921.829 523.148 919.821 522.939 917.814 522.73 916.203 522.416 914.99 521.998 913.777 521.58 912.92 521.057 912.418 520.429 911.916 519.802 911.665 519.07 911.665 518.233L911.665 406.549C911.665 405.712 911.916 404.98 912.418 404.353 912.92 403.725 913.777 403.182 914.99 402.721 916.203 402.261 917.814 401.906 919.821 401.655 921.829 401.404 924.381 401.278 927.476 401.278ZM580.2 401.278C583.296 401.278 585.847 401.383 587.855 401.592 589.863 401.801 591.474 402.115 592.687 402.533 593.9 402.952 594.757 403.474 595.259 404.102 595.761 404.729 596.012 405.461 596.012 406.298L596.012 469.544C596.012 475.4 596.388 479.876 597.141 482.971 597.894 486.067 599.045 488.723 600.592 490.94 602.14 493.157 604.106 494.872 606.49 496.085 608.875 497.298 611.656 497.904 614.835 497.904 618.851 497.904 622.887 496.44 626.945 493.512 631.002 490.584 635.332 486.318 639.933 480.712L639.933 406.298C639.933 405.461 640.163 404.729 640.623 404.102 641.083 403.474 641.92 402.952 643.133 402.533 644.346 402.115 645.956 401.801 647.964 401.592 649.972 401.383 652.523 401.278 655.619 401.278 658.714 401.278 661.266 401.383 663.274 401.592 665.282 401.801 666.871 402.115 668.042 402.533 669.213 402.952 670.05 403.474 670.552 404.102 671.054 404.729 671.305 405.461 671.305 406.298L671.305 518.233C671.305 519.07 671.096 519.802 670.677 520.429 670.259 521.057 669.527 521.58 668.481 521.998 667.436 522.416 666.055 522.73 664.34 522.939 662.625 523.148 660.471 523.253 657.878 523.253 655.117 523.253 652.879 523.148 651.164 522.939 649.449 522.73 648.09 522.416 647.086 521.998 646.082 521.58 645.371 521.057 644.952 520.429 644.534 519.802 644.325 519.07 644.325 518.233L644.325 505.308C638.134 512.001 631.839 517.02 625.439 520.367 619.039 523.713 612.409 525.386 605.549 525.386 597.852 525.386 591.39 524.131 586.161 521.622 580.932 519.112 576.708 515.682 573.487 511.332 570.266 506.981 567.965 501.941 566.585 496.21 565.205 490.48 564.514 483.348 564.514 474.814L564.514 406.298C564.514 405.461 564.745 404.729 565.205 404.102 565.665 403.474 566.501 402.952 567.714 402.533 568.927 402.115 570.559 401.801 572.608 401.592 574.658 401.383 577.189 401.278 580.2 401.278ZM391.822 401.278C394.918 401.278 397.469 401.404 399.477 401.655 401.485 401.906 403.095 402.261 404.308 402.721 405.521 403.182 406.379 403.725 406.881 404.353 407.383 404.98 407.634 405.712 407.634 406.549L407.634 518.233C407.634 519.07 407.383 519.802 406.881 520.429 406.379 521.057 405.521 521.58 404.308 521.998 403.095 522.416 401.485 522.73 399.477 522.939 397.469 523.148 394.918 523.253 391.822 523.253 388.727 523.253 386.175 523.148 384.167 522.939 382.16 522.73 380.549 522.416 379.336 521.998 378.123 521.58 377.266 521.057 376.764 520.429 376.262 519.802 376.011 519.07 376.011 518.233L376.011 406.549C376.011 405.712 376.262 404.98 376.764 404.353 377.266 403.725 378.123 403.182 379.336 402.721 380.549 402.261 382.16 401.906 384.167 401.655 386.175 401.404 388.727 401.278 391.822 401.278ZM1158.37 399.145C1167.15 399.145 1174.66 400.003 1180.89 401.718 1187.12 403.433 1192.25 406.068 1196.26 409.623 1200.28 413.179 1203.21 417.759 1205.05 423.364 1206.89 428.969 1207.81 435.62 1207.81 443.317L1207.81 518.61C1207.81 519.781 1207.39 520.701 1206.55 521.371 1205.72 522.04 1204.4 522.521 1202.6 522.814 1200.8 523.107 1198.15 523.253 1194.63 523.253 1190.87 523.253 1188.13 523.107 1186.41 522.814 1184.7 522.521 1183.48 522.04 1182.77 521.371 1182.06 520.701 1181.71 519.781 1181.71 518.61L1181.71 509.7C1177.11 514.636 1171.86 518.484 1165.96 521.245 1160.06 524.006 1153.51 525.386 1146.32 525.386 1140.38 525.386 1134.92 524.612 1129.94 523.065 1124.97 521.517 1120.66 519.216 1117.02 516.163 1113.38 513.109 1110.56 509.324 1108.55 504.806 1106.54 500.289 1105.54 495.018 1105.54 488.995 1105.54 482.469 1106.81 476.801 1109.36 471.991 1111.91 467.181 1115.72 463.207 1120.78 460.07 1125.84 456.932 1132.14 454.611 1139.67 453.105 1147.2 451.599 1155.94 450.846 1165.9 450.846L1176.81 450.846 1176.81 444.07C1176.81 440.556 1176.46 437.482 1175.75 434.846 1175.04 432.211 1173.86 430.015 1172.23 428.258 1170.6 426.501 1168.43 425.205 1165.71 424.368 1162.99 423.532 1159.62 423.113 1155.61 423.113 1150.34 423.113 1145.63 423.699 1141.49 424.87 1137.35 426.041 1133.69 427.338 1130.51 428.76 1127.33 430.182 1124.67 431.479 1122.54 432.65 1120.41 433.822 1118.67 434.407 1117.33 434.407 1116.41 434.407 1115.6 434.114 1114.88 433.529 1114.17 432.943 1113.59 432.107 1113.13 431.019 1112.67 429.931 1112.31 428.593 1112.06 427.003 1111.81 425.414 1111.68 423.657 1111.68 421.733 1111.68 419.139 1111.89 417.09 1112.31 415.584 1112.73 414.078 1113.53 412.719 1114.7 411.506 1115.87 410.293 1117.92 408.954 1120.85 407.49 1123.77 406.026 1127.2 404.667 1131.14 403.412 1135.07 402.157 1139.35 401.132 1144 400.337 1148.64 399.542 1153.43 399.145 1158.37 399.145ZM1040.59 399.145C1048.2 399.145 1054.62 400.4 1059.85 402.91 1065.08 405.419 1069.31 408.829 1072.53 413.137 1075.75 417.445 1078.07 422.486 1079.49 428.258 1080.91 434.031 1081.62 440.974 1081.62 449.089L1081.62 518.233C1081.62 519.07 1081.37 519.802 1080.87 520.429 1080.37 521.057 1079.53 521.58 1078.36 521.998 1077.19 522.416 1075.58 522.73 1073.53 522.939 1071.48 523.148 1068.95 523.253 1065.94 523.253 1062.84 523.253 1060.27 523.148 1058.22 522.939 1056.17 522.73 1054.56 522.416 1053.39 521.998 1052.22 521.58 1051.38 521.057 1050.88 520.429 1050.38 519.802 1050.13 519.07 1050.13 518.233L1050.13 454.36C1050.13 448.922 1049.73 444.655 1048.93 441.56 1048.14 438.465 1046.99 435.809 1045.48 433.592 1043.98 431.375 1042.03 429.66 1039.65 428.447 1037.26 427.233 1034.48 426.627 1031.3 426.627 1027.29 426.627 1023.23 428.091 1019.13 431.019 1015.03 433.947 1010.77 438.214 1006.33 443.819L1006.33 518.233C1006.33 519.07 1006.08 519.802 1005.58 520.429 1005.08 521.057 1004.22 521.58 1003.01 521.998 1001.79 522.416 1000.18 522.73 998.175 522.939 996.167 523.148 993.615 523.253 990.52 523.253 987.425 523.253 984.873 523.148 982.865 522.939 980.857 522.73 979.247 522.416 978.034 521.998 976.821 521.58 975.963 521.057 975.461 520.429 974.96 519.802 974.709 519.07 974.709 518.233L974.709 406.298C974.709 405.461 974.918 404.729 975.336 404.102 975.754 403.474 976.507 402.952 977.595 402.533 978.682 402.115 980.084 401.801 981.799 401.592 983.514 401.383 985.668 401.278 988.261 401.278 990.938 401.278 993.155 401.383 994.912 401.592 996.669 401.801 998.028 402.115 998.991 402.533 999.953 402.952 1000.64 403.474 1001.06 404.102 1001.48 404.729 1001.69 405.461 1001.69 406.298L1001.69 419.223C1007.88 412.53 1014.17 407.511 1020.57 404.165 1026.97 400.818 1033.65 399.145 1040.59 399.145ZM767.623 399.145C772.224 399.145 776.365 399.626 780.046 400.588 783.727 401.55 787.011 402.931 789.897 404.729 792.783 406.528 795.272 408.682 797.364 411.192 799.455 413.702 801.212 416.504 802.634 419.6 805.981 416.002 809.264 412.907 812.485 410.313 815.706 407.72 818.885 405.608 822.022 403.976 825.159 402.345 828.297 401.132 831.434 400.337 834.571 399.542 837.771 399.145 841.034 399.145 848.479 399.145 854.754 400.4 859.857 402.91 864.96 405.419 869.08 408.829 872.217 413.137 875.355 417.445 877.592 422.486 878.931 428.258 880.27 434.031 880.939 440.138 880.939 446.58L880.939 518.233C880.939 519.07 880.688 519.802 880.186 520.429 879.684 521.057 878.847 521.58 877.676 521.998 876.505 522.416 874.915 522.73 872.908 522.939 870.9 523.148 868.348 523.253 865.253 523.253 862.074 523.253 859.48 523.148 857.473 522.939 855.465 522.73 853.854 522.416 852.641 521.998 851.428 521.58 850.592 521.057 850.132 520.429 849.671 519.802 849.441 519.07 849.441 518.233L849.441 451.85C849.441 448.085 849.086 444.655 848.375 441.56 847.664 438.465 846.576 435.809 845.112 433.592 843.648 431.375 841.807 429.66 839.591 428.447 837.374 427.233 834.717 426.627 831.622 426.627 827.857 426.627 824.051 428.091 820.203 431.019 816.354 433.947 812.171 438.214 807.654 443.819L807.654 518.233C807.654 519.07 807.403 519.802 806.901 520.429 806.399 521.057 805.541 521.58 804.328 521.998 803.115 522.416 801.505 522.73 799.497 522.939 797.489 523.148 794.979 523.253 791.968 523.253 788.872 523.253 786.321 523.148 784.313 522.939 782.305 522.73 780.695 522.416 779.482 521.998 778.269 521.58 777.411 521.057 776.909 520.429 776.407 519.802 776.156 519.07 776.156 518.233L776.156 451.85C776.156 448.085 775.801 444.655 775.09 441.56 774.378 438.465 773.312 435.809 771.89 433.592 770.467 431.375 768.627 429.66 766.368 428.447 764.109 427.233 761.474 426.627 758.462 426.627 754.614 426.627 750.766 428.091 746.917 431.019 743.069 433.947 738.928 438.214 734.494 443.819L734.494 518.233C734.494 519.07 734.243 519.802 733.741 520.429 733.239 521.057 732.382 521.58 731.169 521.998 729.956 522.416 728.345 522.73 726.337 522.939 724.329 523.148 721.778 523.253 718.683 523.253 715.587 523.253 713.036 523.148 711.028 522.939 709.02 522.73 707.409 522.416 706.196 521.998 704.983 521.58 704.126 521.057 703.624 520.429 703.122 519.802 702.871 519.07 702.871 518.233L702.871 406.298C702.871 405.461 703.08 404.729 703.498 404.102 703.917 403.474 704.67 402.952 705.757 402.533 706.845 402.115 708.246 401.801 709.961 401.592 711.676 401.383 713.83 401.278 716.424 401.278 719.101 401.278 721.318 401.383 723.075 401.592 724.831 401.801 726.191 402.115 727.153 402.533 728.115 402.952 728.805 403.474 729.224 404.102 729.642 404.729 729.851 405.461 729.851 406.298L729.851 419.223C736.042 412.53 742.212 407.511 748.361 404.165 754.509 400.818 760.93 399.145 767.623 399.145ZM927.602 352.087C934.629 352.087 939.398 353.279 941.907 355.663 944.417 358.048 945.672 362.293 945.672 368.4 945.672 374.758 944.375 379.151 941.782 381.577 939.188 384.003 934.378 385.216 927.351 385.216 920.24 385.216 915.45 384.045 912.982 381.702 910.514 379.36 909.28 375.135 909.28 369.028 909.28 362.67 910.556 358.257 913.108 355.789 915.659 353.321 920.491 352.087 927.602 352.087ZM391.948 352.087C398.975 352.087 403.744 353.279 406.253 355.663 408.763 358.048 410.018 362.293 410.018 368.4 410.018 374.758 408.721 379.151 406.128 381.577 403.534 384.003 398.724 385.216 391.697 385.216 384.586 385.216 379.796 384.045 377.328 381.702 374.86 379.36 373.626 375.135 373.626 369.028 373.626 362.67 374.902 358.257 377.454 355.789 380.005 353.321 384.837 352.087 391.948 352.087ZM517.91 347.82C521.005 347.82 523.557 347.946 525.564 348.197 527.572 348.448 529.183 348.803 530.396 349.263 531.609 349.724 532.466 350.288 532.968 350.958 533.47 351.627 533.721 352.38 533.721 353.216L533.721 518.233C533.721 519.07 533.47 519.802 532.968 520.429 532.466 521.057 531.609 521.58 530.396 521.998 529.183 522.416 527.572 522.73 525.564 522.939 523.557 523.148 521.005 523.253 517.91 523.253 514.814 523.253 512.263 523.148 510.255 522.939 508.247 522.73 506.637 522.416 505.424 521.998 504.211 521.58 503.353 521.057 502.851 520.429 502.349 519.802 502.098 519.07 502.098 518.233L502.098 353.216C502.098 352.38 502.349 351.627 502.851 350.958 503.353 350.288 504.211 349.724 505.424 349.263 506.637 348.803 508.247 348.448 510.255 348.197 512.263 347.946 514.814 347.82 517.91 347.82ZM454.866 347.82C457.961 347.82 460.513 347.946 462.521 348.197 464.529 348.448 466.139 348.803 467.352 349.263 468.565 349.724 469.423 350.288 469.924 350.958 470.426 351.627 470.677 352.38 470.677 353.216L470.677 518.233C470.677 519.07 470.426 519.802 469.924 520.429 469.423 521.057 468.565 521.58 467.352 521.998 466.139 522.416 464.529 522.73 462.521 522.939 460.513 523.148 457.961 523.253 454.866 523.253 451.771 523.253 449.219 523.148 447.211 522.939 445.203 522.73 443.593 522.416 442.38 521.998 441.167 521.58 440.309 521.057 439.807 520.429 439.305 519.802 439.054 519.07 439.054 518.233L439.054 353.216C439.054 352.38 439.305 351.627 439.807 350.958 440.309 350.288 441.167 349.724 442.38 349.263 443.593 348.803 445.203 348.448 447.211 348.197 449.219 347.946 451.771 347.82 454.866 347.82Z" stroke="#000000" stroke-width="2" stroke-linecap="butt" stroke-linejoin="round" stroke-miterlimit="10" stroke-opacity="1" fill="#FFC000" fill-rule="evenodd" fill-opacity="1"/><text fill="#000000" fill-opacity="0" font-family="Arial,Arial_MSFontService,sans-serif" font-size="177.566" direction="ltr" writing-mode="lr-tb" x="373.626" y="503.19">illumina</text><path d="M903.197 610.126 888.454 654.438 918.021 654.438 903.278 610.126ZM409.137 610.126 394.393 654.438 423.961 654.438 409.217 610.126ZM1162.86 606.42 1162.86 635.988 1173.66 635.988C1176.67 635.988 1179.3 635.625 1181.55 634.9 1183.81 634.175 1185.69 633.155 1187.19 631.839 1188.7 630.523 1189.83 628.952 1190.58 627.126 1191.33 625.299 1191.71 623.258 1191.71 621.003 1191.71 617.565 1190.93 614.665 1189.37 612.301 1187.81 609.938 1185.26 608.273 1181.71 607.306 1180.64 607.038 1179.42 606.823 1178.05 606.662 1176.68 606.501 1174.79 606.42 1172.37 606.42ZM1074.81 605.776C1069.6 605.776 1065.25 606.756 1061.75 608.716 1058.26 610.677 1055.44 613.295 1053.3 616.571 1051.15 619.848 1049.63 623.675 1048.74 628.052 1047.86 632.43 1047.41 637.062 1047.41 641.95 1047.41 647.643 1047.84 652.759 1048.7 657.298 1049.56 661.836 1051.01 665.717 1053.05 668.94 1055.09 672.162 1057.83 674.62 1061.27 676.311 1064.71 678.003 1069.03 678.849 1074.24 678.849 1079.45 678.849 1083.8 677.882 1087.29 675.949 1090.79 674.015 1093.61 671.383 1095.75 668.053 1097.9 664.723 1099.42 660.843 1100.31 656.411 1101.19 651.98 1101.64 647.267 1101.64 642.272 1101.64 636.794 1101.21 631.812 1100.35 627.327 1099.49 622.842 1098.02 619.002 1095.96 615.806 1093.89 612.61 1091.13 610.14 1087.7 608.394 1084.26 606.648 1079.96 605.776 1074.81 605.776ZM733.761 605.776C728.551 605.776 724.2 606.756 720.709 608.716 717.218 610.677 714.398 613.295 712.25 616.571 710.101 619.848 708.584 623.675 707.698 628.052 706.811 632.43 706.368 637.062 706.368 641.95 706.368 647.643 706.798 652.759 707.657 657.298 708.517 661.836 709.967 665.717 712.008 668.94 714.049 672.162 716.788 674.62 720.226 676.311 723.663 678.003 727.987 678.849 733.197 678.849 738.407 678.849 742.757 677.882 746.249 675.949 749.74 674.015 752.56 671.383 754.708 668.053 756.857 664.723 758.374 660.843 759.26 656.411 760.146 651.98 760.589 647.267 760.589 642.272 760.589 636.794 760.16 631.812 759.3 627.327 758.441 622.842 756.977 619.002 754.909 615.806 752.842 612.61 750.089 610.14 746.651 608.394 743.214 606.648 738.917 605.776 733.761 605.776ZM1147.96 590.226 1174.95 590.226C1177.69 590.226 1179.94 590.28 1181.71 590.387 1183.49 590.495 1185.1 590.629 1186.55 590.79 1190.74 591.381 1194.51 592.401 1197.87 593.852 1201.23 595.302 1204.07 597.195 1206.41 599.532 1208.74 601.868 1210.53 604.634 1211.77 607.83 1213 611.026 1213.62 614.692 1213.62 618.827 1213.62 622.318 1213.18 625.501 1212.29 628.374 1211.4 631.248 1210.1 633.813 1208.38 636.068 1206.66 638.324 1204.54 640.285 1202.02 641.95 1199.49 643.615 1196.62 644.958 1193.4 645.978 1194.95 646.73 1196.42 647.643 1197.79 648.717 1199.16 649.792 1200.45 651.094 1201.66 652.625 1202.86 654.156 1204.01 655.901 1205.08 657.862 1206.15 659.822 1207.2 662.038 1208.22 664.508L1217 685.053C1217.81 687.094 1218.35 688.584 1218.61 689.524 1218.88 690.464 1219.02 691.203 1219.02 691.74 1219.02 692.331 1218.91 692.828 1218.69 693.23 1218.48 693.633 1217.97 693.969 1217.16 694.237 1216.36 694.506 1215.18 694.694 1213.62 694.801 1212.06 694.909 1209.94 694.963 1207.25 694.963 1205 694.963 1203.2 694.909 1201.86 694.801 1200.51 694.694 1199.45 694.493 1198.67 694.197 1197.9 693.902 1197.34 693.526 1197.02 693.069 1196.7 692.613 1196.43 692.062 1196.22 691.418L1186.87 668.134C1185.74 665.502 1184.64 663.166 1183.57 661.125 1182.49 659.084 1181.3 657.378 1179.98 656.009 1178.67 654.639 1177.15 653.605 1175.43 652.907 1173.71 652.209 1171.72 651.859 1169.47 651.859L1162.86 651.859 1162.86 691.579C1162.86 692.116 1162.69 692.599 1162.34 693.029 1161.99 693.459 1161.41 693.808 1160.61 694.076 1159.8 694.345 1158.73 694.56 1157.38 694.721 1156.04 694.882 1154.32 694.963 1152.23 694.963 1150.19 694.963 1148.48 694.882 1147.11 694.721 1145.74 694.56 1144.65 694.345 1143.85 694.076 1143.04 693.808 1142.48 693.459 1142.16 693.029 1141.83 692.599 1141.67 692.116 1141.67 691.579L1141.67 596.913C1141.67 594.55 1142.28 592.845 1143.49 591.797 1144.69 590.75 1146.19 590.226 1147.96 590.226ZM945.566 590.226 1019.04 590.226C1019.53 590.226 1019.97 590.374 1020.37 590.669 1020.78 590.965 1021.11 591.448 1021.38 592.12 1021.65 592.791 1021.85 593.691 1021.98 594.818 1022.12 595.946 1022.18 597.316 1022.18 598.927 1022.18 600.485 1022.12 601.814 1021.98 602.915 1021.85 604.016 1021.65 604.903 1021.38 605.574 1021.11 606.245 1020.78 606.742 1020.37 607.065 1019.97 607.387 1019.53 607.548 1019.04 607.548L992.939 607.548 992.939 691.579C992.939 692.116 992.765 692.599 992.416 693.029 992.067 693.459 991.489 693.808 990.683 694.076 989.878 694.345 988.79 694.56 987.421 694.721 986.051 694.882 984.346 694.963 982.305 694.963 980.263 694.963 978.558 694.882 977.189 694.721 975.819 694.56 974.731 694.345 973.926 694.076 973.12 693.808 972.543 693.459 972.193 693.029 971.844 692.599 971.67 692.116 971.67 691.579L971.67 607.548 945.566 607.548C945.029 607.548 944.573 607.387 944.197 607.065 943.821 606.742 943.498 606.245 943.23 605.574 942.961 604.903 942.76 604.016 942.626 602.915 942.491 601.814 942.424 600.485 942.424 598.927 942.424 597.316 942.491 595.946 942.626 594.818 942.76 593.691 942.961 592.791 943.23 592.12 943.498 591.448 943.821 590.965 944.197 590.669 944.573 590.374 945.029 590.226 945.566 590.226ZM789.756 590.226 863.232 590.226C863.716 590.226 864.159 590.374 864.562 590.669 864.965 590.965 865.3 591.448 865.569 592.12 865.837 592.791 866.039 593.691 866.173 594.818 866.307 595.946 866.375 597.316 866.375 598.927 866.375 600.485 866.307 601.814 866.173 602.915 866.039 604.016 865.837 604.903 865.569 605.574 865.3 606.245 864.965 606.742 864.562 607.065 864.159 607.387 863.716 607.548 863.232 607.548L837.129 607.548 837.129 691.579C837.129 692.116 836.954 692.599 836.605 693.029 836.256 693.459 835.679 693.808 834.873 694.076 834.067 694.345 832.98 694.56 831.61 694.721 830.24 694.882 828.535 694.963 826.494 694.963 824.453 694.963 822.748 694.882 821.378 694.721 820.009 694.56 818.921 694.345 818.115 694.076 817.31 693.808 816.732 693.459 816.383 693.029 816.034 692.599 815.859 692.116 815.859 691.579L815.859 607.548 789.756 607.548C789.219 607.548 788.762 607.387 788.386 607.065 788.01 606.742 787.688 606.245 787.419 605.574 787.151 604.903 786.949 604.016 786.815 602.915 786.681 601.814 786.614 600.485 786.614 598.927 786.614 597.316 786.681 595.946 786.815 594.818 786.949 593.691 787.151 592.791 787.419 592.12 787.688 591.448 788.01 590.965 788.386 590.669 788.762 590.374 789.219 590.226 789.756 590.226ZM657.052 589.904C658.878 589.904 660.409 589.971 661.644 590.105 662.88 590.24 663.833 590.468 664.504 590.79 665.176 591.112 665.646 591.488 665.914 591.918 666.183 592.348 666.317 592.831 666.317 593.368L666.317 687.067C666.317 688.302 666.102 689.403 665.673 690.37 665.243 691.337 664.665 692.143 663.94 692.787 663.215 693.432 662.356 693.902 661.362 694.197 660.369 694.493 659.362 694.64 658.341 694.64L649.318 694.64C647.438 694.64 645.813 694.452 644.443 694.076 643.074 693.7 641.811 693.016 640.657 692.022 639.502 691.028 638.387 689.685 637.313 687.994 636.239 686.302 635.03 684.113 633.688 681.427L607.745 632.685C606.241 629.784 604.711 626.656 603.153 623.299 601.595 619.942 600.199 616.679 598.964 613.51L598.802 613.51C599.017 617.377 599.178 621.231 599.286 625.071 599.393 628.911 599.447 632.873 599.447 636.955L599.447 691.498C599.447 692.035 599.299 692.519 599.004 692.948 598.708 693.378 598.198 693.741 597.473 694.036 596.748 694.331 595.768 694.56 594.532 694.721 593.297 694.882 591.713 694.963 589.779 694.963 587.899 694.963 586.341 694.882 585.106 694.721 583.871 694.56 582.904 694.331 582.206 694.036 581.508 693.741 581.024 693.378 580.756 692.948 580.487 692.519 580.353 692.035 580.353 691.498L580.353 597.799C580.353 595.275 581.091 593.382 582.568 592.12 584.045 590.857 585.858 590.226 588.007 590.226L599.366 590.226C601.407 590.226 603.126 590.401 604.523 590.75 605.919 591.099 607.168 591.676 608.269 592.482 609.37 593.288 610.404 594.402 611.371 595.826 612.338 597.249 613.331 599.008 614.352 601.103L634.654 639.211C635.836 641.52 637.004 643.789 638.159 646.018 639.314 648.247 640.428 650.476 641.503 652.705 642.577 654.934 643.624 657.123 644.645 659.272 645.665 661.42 646.659 663.568 647.626 665.717L647.706 665.717C647.545 661.957 647.424 658.036 647.344 653.954 647.263 649.872 647.223 645.978 647.223 642.272L647.223 593.368C647.223 592.831 647.384 592.348 647.706 591.918 648.028 591.488 648.566 591.112 649.318 590.79 650.07 590.468 651.063 590.24 652.299 590.105 653.534 589.971 655.118 589.904 657.052 589.904ZM548.358 589.904C550.184 589.904 551.715 589.971 552.951 590.105 554.186 590.24 555.139 590.468 555.811 590.79 556.482 591.112 556.952 591.488 557.221 591.918 557.489 592.348 557.623 592.831 557.623 593.368L557.623 687.067C557.623 688.302 557.409 689.403 556.979 690.37 556.549 691.337 555.972 692.143 555.247 692.787 554.522 693.432 553.662 693.902 552.669 694.197 551.675 694.493 550.668 694.64 549.647 694.64L540.624 694.64C538.744 694.64 537.119 694.452 535.75 694.076 534.38 693.7 533.118 693.016 531.963 692.022 530.808 691.028 529.694 689.685 528.619 687.994 527.545 686.302 526.337 684.113 524.994 681.427L499.052 632.685C497.548 629.784 496.017 626.656 494.459 623.299 492.902 619.942 491.505 616.679 490.27 613.51L490.109 613.51C490.324 617.377 490.485 621.231 490.592 625.071 490.699 628.911 490.753 632.873 490.753 636.955L490.753 691.498C490.753 692.035 490.605 692.519 490.31 692.948 490.015 693.378 489.504 693.741 488.779 694.036 488.054 694.331 487.074 694.56 485.839 694.721 484.603 694.882 483.019 694.963 481.085 694.963 479.205 694.963 477.648 694.882 476.412 694.721 475.177 694.56 474.21 694.331 473.512 694.036 472.814 693.741 472.33 693.378 472.062 692.948 471.793 692.519 471.659 692.035 471.659 691.498L471.659 597.799C471.659 595.275 472.397 593.382 473.875 592.12 475.352 590.857 477.164 590.226 479.313 590.226L490.673 590.226C492.714 590.226 494.432 590.401 495.829 590.75 497.225 591.099 498.474 591.676 499.575 592.482 500.676 593.288 501.71 594.402 502.677 595.826 503.644 597.249 504.637 599.008 505.658 601.103L525.961 639.211C527.142 641.52 528.311 643.789 529.465 646.018 530.62 648.247 531.735 650.476 532.809 652.705 533.883 654.934 534.93 657.123 535.951 659.272 536.971 661.42 537.965 663.568 538.932 665.717L539.013 665.717C538.851 661.957 538.731 658.036 538.65 653.954 538.569 649.872 538.529 645.978 538.529 642.272L538.529 593.368C538.529 592.831 538.69 592.348 539.013 591.918 539.335 591.488 539.872 591.112 540.624 590.79 541.376 590.468 542.369 590.24 543.605 590.105 544.84 589.971 546.425 589.904 548.358 589.904ZM903.52 589.743C906.688 589.743 909.213 589.783 911.093 589.864 912.973 589.944 914.436 590.132 915.484 590.428 916.531 590.723 917.283 591.166 917.74 591.757 918.196 592.348 918.585 593.153 918.908 594.174L951.134 686.584C951.779 688.517 952.182 690.048 952.343 691.176 952.504 692.304 952.289 693.15 951.698 693.714 951.107 694.278 950.06 694.627 948.556 694.761 947.052 694.895 944.984 694.963 942.353 694.963 939.613 694.963 937.478 694.922 935.948 694.842 934.417 694.761 933.249 694.6 932.443 694.358 931.637 694.117 931.073 693.781 930.751 693.351 930.429 692.922 930.16 692.358 929.945 691.659L922.936 670.712 883.781 670.712 877.174 691.095C876.959 691.847 876.677 692.478 876.328 692.989 875.979 693.499 875.415 693.902 874.636 694.197 873.858 694.493 872.757 694.694 871.333 694.801 869.91 694.909 868.043 694.963 865.734 694.963 863.263 694.963 861.33 694.882 859.933 694.721 858.537 694.56 857.57 694.17 857.033 693.553 856.496 692.935 856.308 692.062 856.469 690.934 856.63 689.806 857.033 688.302 857.677 686.422L889.823 593.932C890.146 593.019 890.521 592.281 890.951 591.717 891.381 591.153 892.066 590.723 893.006 590.428 893.946 590.132 895.248 589.944 896.913 589.864 898.578 589.783 900.78 589.743 903.52 589.743ZM409.459 589.743C412.628 589.743 415.153 589.783 417.032 589.864 418.912 589.944 420.376 590.132 421.423 590.428 422.471 590.723 423.223 591.166 423.679 591.757 424.136 592.348 424.525 593.153 424.847 594.174L457.074 686.584C457.718 688.517 458.121 690.048 458.282 691.176 458.444 692.304 458.229 693.15 457.638 693.714 457.047 694.278 456 694.627 454.496 694.761 452.992 694.895 450.924 694.963 448.292 694.963 445.553 694.963 443.418 694.922 441.887 694.842 440.356 694.761 439.188 694.6 438.383 694.358 437.577 694.117 437.013 693.781 436.691 693.351 436.368 692.922 436.1 692.358 435.885 691.659L428.876 670.712 389.72 670.712 383.114 691.095C382.899 691.847 382.617 692.478 382.268 692.989 381.919 693.499 381.355 693.902 380.576 694.197 379.797 694.493 378.696 694.694 377.273 694.801 375.85 694.909 373.983 694.963 371.674 694.963 369.203 694.963 367.269 694.882 365.873 694.721 364.476 694.56 363.51 694.17 362.972 693.553 362.435 692.935 362.247 692.062 362.408 690.934 362.57 689.806 362.972 688.302 363.617 686.422L395.763 593.932C396.085 593.019 396.461 592.281 396.891 591.717 397.321 591.153 398.005 590.723 398.945 590.428 399.885 590.132 401.188 589.944 402.853 589.864 404.518 589.783 406.72 589.743 409.459 589.743ZM1075.53 588.373C1083.43 588.373 1090.4 589.421 1096.44 591.515 1102.48 593.61 1107.53 596.833 1111.59 601.183 1115.64 605.534 1118.7 611.026 1120.77 617.659 1122.84 624.292 1123.87 632.121 1123.87 641.144 1123.87 649.792 1122.8 657.526 1120.65 664.347 1118.5 671.169 1115.3 676.956 1111.06 681.709 1106.82 686.463 1101.57 690.088 1095.31 692.586 1089.05 695.083 1081.82 696.332 1073.6 696.332 1065.49 696.332 1058.41 695.271 1052.37 693.15 1046.33 691.028 1041.29 687.792 1037.26 683.442 1033.23 679.091 1030.21 673.559 1028.2 666.845 1026.18 660.131 1025.18 652.182 1025.18 642.997 1025.18 634.565 1026.25 626.978 1028.4 620.237 1030.55 613.496 1033.74 607.763 1037.99 603.036 1042.23 598.31 1047.48 594.684 1053.74 592.16 1060 589.635 1067.26 588.373 1075.53 588.373ZM734.486 588.373C742.381 588.373 749.35 589.421 755.393 591.515 761.435 593.61 766.484 596.833 770.539 601.183 774.595 605.534 777.656 611.026 779.724 617.659 781.792 624.292 782.826 632.121 782.826 641.144 782.826 649.792 781.752 657.526 779.603 664.347 777.455 671.169 774.259 676.956 770.016 681.709 765.773 686.463 760.522 690.088 754.265 692.586 748.008 695.083 740.77 696.332 732.552 696.332 724.442 696.332 717.366 695.271 711.323 693.15 705.281 691.028 700.245 687.792 696.217 683.442 692.189 679.091 689.167 673.559 687.153 666.845 685.139 660.131 684.132 652.182 684.132 642.997 684.132 634.565 685.206 626.978 687.355 620.237 689.503 613.496 692.699 607.763 696.942 603.036 701.185 598.31 706.435 594.684 712.693 592.16 718.95 589.635 726.214 588.373 734.486 588.373Z" stroke="#000000" stroke-width="2" stroke-linecap="butt" stroke-linejoin="round" stroke-miterlimit="10" stroke-opacity="1" fill="#FFC000" fill-rule="evenodd" fill-opacity="1"/><text fill="#000000" fill-opacity="0" font-family="Arial,Arial_MSFontService,sans-serif" font-size="107.959" direction="ltr" writing-mode="lr-tb" x="362.353" y="682.837">ANNOTATOR</text></g></g></svg>