<svg width="2182" height="752" xmlns="http://www.w3.org/2000/svg" xmlns:xlink="http://www.w3.org/1999/xlink"
     xml:space="preserve" overflow="hidden">
    <g transform="translate(-2025 -403)">
    <g>
        <path d="M4084.77 651.14C4070.61 656.199 4055.85 660.667 4040.51 664.545 4019.6 670.11 4006.36 675.59 4000.8 680.986 3995.06 686.55 3992.2 692.873 3992.2 699.956 3992.2 708.049 3995.02 714.668 4000.67 719.81 4006.32 724.953 4014.62 727.525 4025.58 727.525 4037.05 727.525 4047.72 724.743 4057.58 719.178 4067.44 713.614 4074.44 706.827 4078.57 698.817 4082.7 690.808 4084.77 680.396 4084.77 667.581ZM3396.69 510.005 3499.64 510.005 3499.64 778.617 3396.69 778.617ZM2537.69 510.005 2641.14 510.005 2641.14 657.716C2641.14 674.578 2644.26 686.55 2650.5 693.632 2656.74 700.714 2665.51 704.255 2676.8 704.255 2689.11 704.255 2699.19 699.534 2707.03 690.091 2714.87 680.649 2718.79 663.702 2718.79 639.252L2718.79 510.005 2821.73 510.005 2821.73 778.617 2725.62 778.617 2725.62 735.113C2711.29 752.986 2696.83 765.717 2682.24 773.305 2667.66 780.893 2649.74 784.687 2628.49 784.687 2600.17 784.687 2577.95 776.214 2561.85 759.268 2545.74 742.321 2537.69 716.227 2537.69 680.986ZM2038.83 510.005 2141.78 510.005 2141.78 778.617 2038.83 778.617ZM4035.96 503.935C4066.81 503.935 4091.6 505.663 4110.32 509.12 4129.03 512.577 4144.63 519.785 4157.11 530.746 4165.88 538.333 4172.79 549.083 4177.85 562.994 4182.91 576.905 4185.44 590.184 4185.44 602.831L4185.44 721.455C4185.44 734.101 4186.24 744.007 4187.84 751.174 4189.44 758.34 4192.94 767.488 4198.34 778.617L4101.72 778.617C4097.84 771.703 4095.31 766.434 4094.13 762.809 4092.95 759.183 4091.77 753.492 4090.59 745.736 4077.1 758.719 4063.69 767.994 4050.37 773.558 4032.16 780.977 4011 784.687 3986.89 784.687 3954.85 784.687 3930.53 777.268 3913.92 762.429 3897.31 747.591 3889 729.295 3889 707.543 3889 687.14 3894.99 670.363 3906.96 657.21 3918.93 644.058 3941.02 634.278 3973.23 627.871 4011.84 620.114 4036.88 614.676 4048.35 611.557 4059.81 608.437 4071.96 604.348 4084.77 599.289 4084.77 586.643 4082.16 577.79 4076.93 572.732 4071.7 567.673 4062.51 565.144 4049.36 565.144 4032.5 565.144 4019.85 567.842 4011.42 573.238 4004.84 577.453 3999.53 585.378 3995.49 597.013L3897.1 586.643C3900.81 569.444 3906.16 555.912 3913.16 546.048 3920.16 536.184 3930.23 527.626 3943.38 520.375 3952.83 515.148 3965.81 511.101 3982.33 508.235 3998.86 505.368 4016.73 503.935 4035.96 503.935ZM3753.77 503.935C3782.27 503.935 3804.57 512.408 3820.67 529.354 3836.78 546.301 3844.83 572.479 3844.83 607.889L3844.83 778.617 3741.38 778.617 3741.38 630.906C3741.38 614.044 3738.26 602.114 3732.02 595.116 3725.78 588.118 3717.01 584.62 3705.72 584.62 3693.24 584.62 3683.12 589.341 3675.36 598.784 3667.61 608.226 3663.73 625.173 3663.73 649.622L3663.73 778.617 3560.79 778.617 3560.79 510.005 3656.65 510.005 3656.65 553.762C3670.98 535.888 3685.48 523.116 3700.15 515.443 3714.82 507.771 3732.69 503.935 3753.77 503.935ZM3069.26 503.935C3090.68 503.935 3107.62 507.729 3120.1 515.317 3132.58 522.905 3142.78 534.202 3150.71 549.209 3166.89 531.673 3181.65 519.743 3194.97 513.42 3208.29 507.097 3224.73 503.935 3244.29 503.935 3273.12 503.935 3295.64 512.492 3311.82 529.607 3328.01 546.722 3336.1 573.491 3336.1 609.913L3336.1 778.617 3232.91 778.617 3232.91 625.594C3232.91 613.454 3230.55 604.432 3225.83 598.531 3218.91 589.257 3210.31 584.62 3200.03 584.62 3187.89 584.62 3178.11 589.004 3170.69 597.772 3163.27 606.54 3159.56 620.62 3159.56 640.011L3159.56 778.617 3056.36 778.617 3056.36 630.653C3056.36 618.849 3055.69 610.84 3054.34 606.624 3052.15 599.88 3048.35 594.442 3042.96 590.31 3037.56 586.179 3031.24 584.114 3023.99 584.114 3012.19 584.114 3002.49 588.582 2994.9 597.519 2987.31 606.456 2983.52 621.126 2983.52 641.529L2983.52 778.617 2880.32 778.617 2880.32 510.005 2976.44 510.005 2976.44 549.209C2990.26 532.853 3004.22 521.219 3018.3 514.305 3032.38 507.392 3049.37 503.935 3069.26 503.935ZM3396.69 407.822 3499.64 407.822 3499.64 477.883 3396.69 477.883ZM2374.36 407.822 2477.55 407.822 2477.55 778.617 2374.36 778.617ZM2206.47 407.822 2309.66 407.822 2309.66 778.617 2206.47 778.617ZM2038.83 407.822 2141.78 407.822 2141.78 477.883 2038.83 477.883Z"
              stroke="#000000" stroke-width="5" stroke-linecap="butt" stroke-linejoin="round" stroke-miterlimit="10"
              stroke-opacity="1" fill="#FFC000" fill-rule="evenodd" fill-opacity="1"/>
        <text
                fill="#000000" fill-opacity="0" font-family="Arial,Arial_MSFontService,sans-serif" font-size="376.865"
                direction="ltr" writing-mode="lr-tb" x="2038.83" y="737.579">illumina
        </text>
        <path
                d="M3473.89 1046.44C3462.88 1050.38 3451.4 1053.85 3439.46 1056.87 3423.19 1061.2 3412.89 1065.46 3408.56 1069.66 3404.1 1073.99 3401.87 1078.91 3401.87 1084.42 3401.87 1090.72 3404.07 1095.86 3408.47 1099.87 3412.86 1103.87 3419.32 1105.87 3427.85 1105.87 3436.77 1105.87 3445.07 1103.7 3452.74 1099.37 3460.42 1095.04 3465.86 1089.76 3469.07 1083.53 3472.29 1077.3 3473.89 1069.2 3473.89 1059.23ZM3881.09 987.014C3869.42 987.014 3859.77 991.507 3852.16 1000.49 3844.56 1009.48 3840.75 1023.16 3840.75 1041.52 3840.75 1060.15 3844.52 1073.92 3852.07 1082.84 3859.61 1091.77 3869.09 1096.23 3880.5 1096.23 3892.04 1096.23 3901.52 1091.83 3908.93 1083.04 3916.35 1074.25 3920.05 1060.15 3920.05 1040.73 3920.05 1022.63 3916.31 1009.15 3908.84 1000.3 3901.36 991.442 3892.11 987.014 3881.09 987.014ZM3003.34 987.014C2991.66 987.014 2982.02 991.507 2974.41 1000.49 2966.8 1009.48 2963 1023.16 2963 1041.52 2963 1060.15 2966.77 1073.92 2974.31 1082.84 2981.85 1091.77 2991.33 1096.23 3002.75 1096.23 3014.29 1096.23 3023.77 1091.83 3031.18 1083.04 3038.59 1074.25 3042.3 1060.15 3042.3 1040.73 3042.3 1022.63 3038.56 1009.15 3031.08 1000.3 3023.6 991.442 3014.36 987.014 3003.34 987.014ZM4161.27 931.916C4173.07 931.916 4186 935.59 4200.03 942.936L4175.24 1000C4165.79 996.066 4158.32 994.098 4152.81 994.098 4142.31 994.098 4134.18 998.427 4128.41 1007.09 4120.14 1019.29 4116.01 1042.11 4116.01 1075.56L4116.01 1145.62 4035.53 1145.62 4035.53 936.639 4110.5 936.639 4110.5 970.878C4117.71 956.054 4125.16 945.855 4132.83 940.279 4140.51 934.704 4149.99 931.916 4161.27 931.916ZM3879.91 931.916C3921.76 931.916 3953.37 944.051 3974.76 968.32 3991.94 987.867 4000.53 1011.94 4000.53 1040.54 4000.53 1072.68 3989.88 1099.01 3968.56 1119.54 3947.24 1140.07 3917.76 1150.34 3880.11 1150.34 3846.52 1150.34 3819.37 1141.81 3798.64 1124.76 3773.19 1103.64 3760.47 1075.96 3760.47 1041.72 3760.47 1009.84 3771.22 983.57 3792.74 962.909 3814.25 942.247 3843.31 931.916 3879.91 931.916ZM3435.92 931.916C3459.92 931.916 3479.21 933.261 3493.77 935.95 3508.33 938.64 3520.47 944.248 3530.17 952.775 3536.99 958.678 3542.37 967.041 3546.31 977.864 3550.24 988.687 3552.21 999.017 3552.21 1008.86L3552.21 1101.14C3552.21 1110.98 3552.84 1118.69 3554.08 1124.27 3555.33 1129.84 3558.05 1136.96 3562.25 1145.62L3487.08 1145.62C3484.06 1140.24 3482.09 1136.14 3481.18 1133.32 3480.26 1130.5 3479.34 1126.07 3478.42 1120.04 3467.93 1130.14 3457.5 1137.35 3447.13 1141.68 3432.97 1147.45 3416.5 1150.34 3397.74 1150.34 3372.82 1150.34 3353.89 1144.57 3340.97 1133.02 3328.05 1121.48 3321.59 1107.24 3321.59 1090.32 3321.59 1074.45 3326.25 1061.4 3335.56 1051.16 3344.87 1040.93 3362.06 1033.32 3387.12 1028.34 3417.16 1022.3 3436.64 1018.07 3445.56 1015.65 3454.48 1013.22 3463.92 1010.04 3473.89 1006.1 3473.89 996.263 3471.86 989.375 3467.79 985.44 3463.73 981.504 3456.58 979.536 3446.35 979.536 3433.23 979.536 3423.39 981.635 3416.83 985.833 3411.71 989.113 3407.58 995.279 3404.43 1004.33L3327.89 996.263C3330.77 982.882 3334.94 972.354 3340.38 964.68 3345.83 957.005 3353.66 950.348 3363.9 944.707 3371.24 940.64 3381.34 937.492 3394.2 935.262 3407.06 933.031 3420.96 931.916 3435.92 931.916ZM3002.16 931.916C3044 931.916 3075.62 944.051 3097 968.32 3114.19 987.867 3122.78 1011.94 3122.78 1040.54 3122.78 1072.68 3112.12 1099.01 3090.8 1119.54 3069.49 1140.07 3040 1150.34 3002.35 1150.34 2968.77 1150.34 2941.61 1141.81 2920.89 1124.76 2895.44 1103.64 2882.71 1075.96 2882.71 1041.72 2882.71 1009.84 2893.47 983.57 2914.98 962.909 2936.5 942.247 2965.56 931.916 3002.16 931.916ZM2778.26 931.916C2800.43 931.916 2817.78 938.508 2830.3 951.693 2842.83 964.877 2849.1 985.243 2849.1 1012.79L2849.1 1145.62 2768.61 1145.62 2768.61 1030.7C2768.61 1017.58 2766.19 1008.3 2761.33 1002.85 2756.48 997.41 2749.66 994.688 2740.87 994.688 2731.16 994.688 2723.29 998.362 2717.26 1005.71 2711.22 1013.05 2708.2 1026.24 2708.2 1045.26L2708.2 1145.62 2628.12 1145.62 2628.12 936.639 2702.69 936.639 2702.69 970.682C2713.84 956.776 2725.13 946.839 2736.54 940.87 2747.95 934.901 2761.86 931.916 2778.26 931.916ZM2513.82 931.916C2535.99 931.916 2553.34 938.508 2565.87 951.693 2578.4 964.877 2584.66 985.243 2584.66 1012.79L2584.66 1145.62 2504.18 1145.62 2504.18 1030.7C2504.18 1017.58 2501.75 1008.3 2496.9 1002.85 2492.04 997.41 2485.22 994.688 2476.43 994.688 2466.73 994.688 2458.85 998.362 2452.82 1005.71 2446.79 1013.05 2443.77 1026.24 2443.77 1045.26L2443.77 1145.62 2363.68 1145.62 2363.68 936.639 2438.26 936.639 2438.26 970.682C2449.41 956.776 2460.69 946.839 2472.1 940.87 2483.52 934.901 2497.42 931.916 2513.82 931.916ZM2186.77 931.916 2155.09 1035.62 2218.65 1035.62ZM3692.48 857.141 3692.48 936.639 3736.56 936.639 3736.56 995.082 3692.48 995.082 3692.48 1069.27C3692.48 1078.19 3693.33 1084.09 3695.04 1086.98 3697.66 1091.44 3702.25 1093.67 3708.81 1093.67 3714.72 1093.67 3722.98 1091.96 3733.61 1088.55L3739.51 1143.85C3719.7 1148.17 3701.2 1150.34 3684.02 1150.34 3664.08 1150.34 3649.39 1147.78 3639.94 1142.66 3630.5 1137.55 3623.51 1129.78 3618.98 1119.35 3614.46 1108.92 3612.2 1092.03 3612.2 1068.68L3612.2 995.082 3582.68 995.082 3582.68 936.639 3612.2 936.639 3612.2 898.267ZM3253.6 857.141 3253.6 936.639 3297.68 936.639 3297.68 995.082 3253.6 995.082 3253.6 1069.27C3253.6 1078.19 3254.46 1084.09 3256.16 1086.98 3258.79 1091.44 3263.38 1093.67 3269.94 1093.67 3275.84 1093.67 3284.1 1091.96 3294.73 1088.55L3300.63 1143.85C3280.82 1148.17 3262.33 1150.34 3245.14 1150.34 3225.2 1150.34 3210.51 1147.78 3201.06 1142.66 3191.62 1137.55 3184.63 1129.78 3180.11 1119.35 3175.58 1108.92 3173.32 1092.03 3173.32 1068.68L3173.32 995.082 3143.8 995.082 3143.8 936.639 3173.32 936.639 3173.32 898.267ZM2139.15 857.141 2236.36 857.141 2344.78 1145.62 2251.51 1145.62 2237.34 1098 2135.8 1098 2121.83 1145.62 2030.72 1145.62Z"
                stroke="#000000" stroke-width="5" stroke-linecap="butt" stroke-linejoin="round" stroke-miterlimit="10"
                stroke-opacity="1" fill="#FFC000" fill-rule="evenodd" fill-opacity="1"/>
        <text fill="#000000" fill-opacity="0"
              font-family="Arial,Arial_MSFontService,sans-serif"
              font-size="293.198"
              direction="ltr"
              writing-mode="lr-tb" x="2030.72"
              y="1113.69">Annotator
        </text>
    </g>
    </g>
</svg>