<svg width="3992" height="330" viewBox="0 0 7000 10" xmlns="http://www.w3.org/2000/svg" xmlns:xlink="http://www.w3.org/1999/xlink"
     xml:space="preserve" overflow="hidden">
    <g transform="translate(-458 -1044)"><g>
        <path d="M3720.62 1139.49C3709.6 1143.43 3698.12 1146.9 3686.18 1149.92 3669.91 1154.25 3659.61 1158.51 3655.29 1162.71 3650.83 1167.04 3648.59 1171.96 3648.6 1177.47 3648.59 1183.77 3650.79 1188.92 3655.19 1192.92 3659.58 1196.92 3666.04 1198.92 3674.57 1198.92 3683.49 1198.92 3691.79 1196.76 3699.46 1192.43 3707.14 1188.1 3712.58 1182.82 3715.79 1176.59 3719.01 1170.35 3720.62 1162.25 3720.62 1152.28ZM2049.35 1139.49C2038.33 1143.43 2026.85 1146.9 2014.91 1149.92 1998.65 1154.25 1988.35 1158.51 1984.02 1162.71 1979.56 1167.04 1977.33 1171.96 1977.33 1177.47 1977.33 1183.77 1979.53 1188.92 1983.92 1192.92 1988.32 1196.92 1994.78 1198.92 2003.3 1198.92 2012.22 1198.92 2020.52 1196.76 2028.2 1192.43 2035.87 1188.1 2041.31 1182.82 2044.53 1176.59 2047.74 1170.35 2049.35 1162.25 2049.35 1152.28ZM4127.81 1080.07C4116.14 1080.07 4106.49 1084.56 4098.89 1093.55 4091.28 1102.53 4087.47 1116.21 4087.47 1134.57 4087.47 1153.2 4091.24 1166.98 4098.79 1175.9 4106.33 1184.82 4115.81 1189.28 4127.22 1189.28 4138.77 1189.28 4148.24 1184.88 4155.66 1176.09 4163.07 1167.3 4166.77 1153.2 4166.77 1133.79 4166.77 1115.68 4163.03 1102.2 4155.56 1093.35 4148.08 1084.49 4138.83 1080.07 4127.81 1080.07ZM3250.06 1080.07C3238.38 1080.07 3228.74 1084.56 3221.13 1093.55 3213.52 1102.53 3209.72 1116.21 3209.72 1134.57 3209.72 1153.2 3213.49 1166.98 3221.03 1175.9 3228.58 1184.82 3238.05 1189.28 3249.47 1189.28 3261.01 1189.28 3270.49 1184.88 3277.9 1176.09 3285.31 1167.3 3289.02 1153.2 3289.02 1133.79 3289.02 1115.68 3285.28 1102.2 3277.8 1093.35 3270.33 1084.49 3261.08 1080.07 3250.06 1080.07ZM1515.67 1029.69 1595.76 1029.69 1595.76 1238.67 1515.67 1238.67ZM848.743 1029.69 929.225 1029.69 929.225 1144.61C929.225 1157.73 931.652 1167.04 936.506 1172.55 941.36 1178.06 948.181 1180.82 956.971 1180.82 966.547 1180.82 974.385 1177.14 980.485 1169.8 986.586 1162.45 989.636 1149.27 989.636 1130.24L989.636 1029.69 1069.72 1029.69 1069.72 1238.67 994.949 1238.67 994.949 1204.82C983.798 1218.73 972.549 1228.63 961.201 1234.54 949.854 1240.44 935.915 1243.39 919.386 1243.39 897.347 1243.39 880.063 1236.8 867.535 1223.62 855.007 1210.43 848.743 1190.13 848.743 1162.71ZM463.288 1029.69 543.377 1029.69 543.377 1238.67 463.288 1238.67ZM4407.99 1024.97C4419.8 1024.97 4432.72 1028.64 4446.75 1035.99L4421.96 1093.05C4412.51 1089.12 4405.04 1087.15 4399.53 1087.15 4389.03 1087.15 4380.9 1091.48 4375.13 1100.14 4366.86 1112.34 4362.73 1135.16 4362.73 1168.62L4362.73 1238.67 4282.25 1238.67 4282.25 1029.69 4357.22 1029.69 4357.22 1063.93C4364.44 1049.11 4371.88 1038.91 4379.55 1033.33 4387.23 1027.76 4396.71 1024.97 4407.99 1024.97ZM4126.63 1024.97C4168.48 1024.97 4200.09 1037.1 4221.48 1061.37 4238.66 1080.92 4247.26 1104.99 4247.26 1133.59 4247.26 1165.73 4236.6 1192.07 4215.28 1212.6 4193.96 1233.13 4164.48 1243.39 4126.83 1243.39 4093.24 1243.39 4066.09 1234.86 4045.36 1217.81 4019.91 1196.69 4007.19 1169.01 4007.19 1134.77 4007.19 1102.89 4017.94 1076.62 4039.46 1055.96 4060.97 1035.3 4090.03 1024.97 4126.63 1024.97ZM3682.64 1024.97C3706.64 1024.97 3725.93 1026.31 3740.49 1029 3755.05 1031.69 3767.19 1037.3 3776.89 1045.83 3783.72 1051.73 3789.09 1060.09 3793.03 1070.92 3796.97 1081.74 3798.93 1092.07 3798.93 1101.91L3798.93 1194.2C3798.93 1204.04 3799.56 1211.74 3800.8 1217.32 3802.05 1222.89 3804.77 1230.01 3808.97 1238.67L3733.8 1238.67C3730.78 1233.29 3728.81 1229.19 3727.9 1226.37 3726.98 1223.55 3726.06 1219.12 3725.14 1213.09 3714.65 1223.19 3704.22 1230.4 3693.85 1234.73 3679.69 1240.51 3663.22 1243.39 3644.46 1243.39 3619.54 1243.39 3600.61 1237.62 3587.69 1226.07 3574.77 1214.53 3568.31 1200.3 3568.31 1183.37 3568.31 1167.5 3572.97 1154.45 3582.28 1144.22 3591.6 1133.98 3608.78 1126.37 3633.84 1121.39 3663.88 1115.35 3683.36 1111.12 3692.28 1108.7 3701.2 1106.27 3710.65 1103.09 3720.62 1099.15 3720.62 1089.31 3718.58 1082.43 3714.52 1078.49 3710.45 1074.56 3703.3 1072.59 3693.07 1072.59 3679.95 1072.59 3670.11 1074.69 3663.55 1078.89 3658.43 1082.17 3654.3 1088.33 3651.15 1097.38L3574.61 1089.31C3577.49 1075.93 3581.66 1065.41 3587.1 1057.73 3592.55 1050.06 3600.38 1043.4 3610.62 1037.76 3617.96 1033.69 3628.06 1030.54 3640.92 1028.31 3653.78 1026.08 3667.68 1024.97 3682.64 1024.97ZM3248.88 1024.97C3290.72 1024.97 3322.34 1037.1 3343.72 1061.37 3360.91 1080.92 3369.5 1104.99 3369.5 1133.59 3369.5 1165.73 3358.84 1192.07 3337.52 1212.6 3316.21 1233.13 3286.72 1243.39 3249.07 1243.39 3215.49 1243.39 3188.33 1234.86 3167.61 1217.81 3142.16 1196.69 3129.43 1169.01 3129.43 1134.77 3129.43 1102.89 3140.19 1076.62 3161.7 1055.96 3183.22 1035.3 3212.28 1024.97 3248.88 1024.97ZM3024.98 1024.97C3047.15 1024.97 3064.5 1031.56 3077.02 1044.74 3089.55 1057.93 3095.82 1078.3 3095.82 1105.84L3095.82 1238.67 3015.34 1238.67 3015.34 1123.75C3015.34 1110.63 3012.91 1101.35 3008.05 1095.91 3003.2 1090.46 2996.38 1087.74 2987.59 1087.74 2977.88 1087.74 2970.01 1091.41 2963.98 1098.76 2957.94 1106.11 2954.92 1119.29 2954.92 1138.31L2954.92 1238.67 2874.84 1238.67 2874.84 1029.69 2949.41 1029.69 2949.41 1063.73C2960.57 1049.83 2971.85 1039.89 2983.26 1033.92 2994.67 1027.95 3008.58 1024.97 3024.98 1024.97ZM2760.54 1024.97C2782.71 1024.97 2800.06 1031.56 2812.59 1044.74 2825.12 1057.93 2831.38 1078.3 2831.38 1105.84L2831.38 1238.67 2750.9 1238.67 2750.9 1123.75C2750.9 1110.63 2748.47 1101.35 2743.62 1095.91 2738.77 1090.46 2731.94 1087.74 2723.15 1087.74 2713.45 1087.74 2705.58 1091.41 2699.54 1098.76 2693.51 1106.11 2690.49 1119.29 2690.49 1138.31L2690.49 1238.67 2610.4 1238.67 2610.4 1029.69 2684.98 1029.69 2684.98 1063.73C2696.13 1049.83 2707.41 1039.89 2718.83 1033.92 2730.24 1027.95 2744.14 1024.97 2760.54 1024.97ZM2433.49 1024.97 2401.81 1128.67 2465.37 1128.67ZM2011.37 1024.97C2035.38 1024.97 2054.66 1026.31 2069.22 1029 2083.78 1031.69 2095.92 1037.3 2105.63 1045.83 2112.45 1051.73 2117.83 1060.09 2121.76 1070.92 2125.7 1081.74 2127.67 1092.07 2127.67 1101.91L2127.67 1194.2C2127.67 1204.04 2128.29 1211.74 2129.54 1217.32 2130.78 1222.89 2133.5 1230.01 2137.7 1238.67L2062.53 1238.67C2059.52 1233.29 2057.55 1229.19 2056.63 1226.37 2055.71 1223.55 2054.79 1219.12 2053.87 1213.09 2043.38 1223.19 2032.95 1230.4 2022.59 1234.73 2008.42 1240.51 1991.96 1243.39 1973.2 1243.39 1948.27 1243.39 1929.35 1237.62 1916.43 1226.07 1903.5 1214.53 1897.04 1200.3 1897.04 1183.37 1897.04 1167.5 1901.7 1154.45 1911.01 1144.22 1920.33 1133.98 1937.51 1126.37 1962.57 1121.39 1992.61 1115.35 2012.09 1111.12 2021.01 1108.7 2029.93 1106.27 2039.38 1103.09 2049.35 1099.15 2049.35 1089.31 2047.32 1082.43 2043.25 1078.49 2039.18 1074.56 2032.03 1072.59 2021.8 1072.59 2008.68 1072.59 1998.84 1074.69 1992.28 1078.89 1987.17 1082.17 1983.03 1088.33 1979.89 1097.38L1903.34 1089.31C1906.23 1075.93 1910.39 1065.41 1915.84 1057.73 1921.28 1050.06 1929.12 1043.4 1939.35 1037.76 1946.7 1033.69 1956.8 1030.54 1969.65 1028.31 1982.51 1026.08 1996.42 1024.97 2011.37 1024.97ZM1792.59 1024.97C1814.76 1024.97 1832.11 1031.56 1844.64 1044.74 1857.16 1057.93 1863.43 1078.3 1863.43 1105.84L1863.43 1238.67 1782.95 1238.67 1782.95 1123.75C1782.95 1110.63 1780.52 1101.35 1775.66 1095.91 1770.81 1090.46 1763.99 1087.74 1755.2 1087.74 1745.49 1087.74 1737.62 1091.41 1731.59 1098.76 1725.55 1106.11 1722.54 1119.29 1722.54 1138.31L1722.54 1238.67 1642.45 1238.67 1642.45 1029.69 1717.03 1029.69 1717.03 1063.73C1728.18 1049.83 1739.46 1039.89 1750.87 1033.92 1762.28 1027.95 1776.19 1024.97 1792.59 1024.97ZM1261.55 1024.97C1278.21 1024.97 1291.39 1027.92 1301.1 1033.82 1310.81 1039.73 1318.75 1048.52 1324.91 1060.19 1337.5 1046.55 1348.98 1037.27 1359.35 1032.35 1369.71 1027.43 1382.5 1024.97 1397.72 1024.97 1420.15 1024.97 1437.66 1031.63 1450.26 1044.94 1462.85 1058.26 1469.15 1079.08 1469.15 1107.42L1469.15 1238.67 1388.86 1238.67 1388.86 1119.62C1388.86 1110.17 1387.03 1103.15 1383.35 1098.56 1377.98 1091.35 1371.28 1087.74 1363.28 1087.74 1353.84 1087.74 1346.23 1091.15 1340.46 1097.97 1334.68 1104.79 1331.8 1115.75 1331.8 1130.83L1331.8 1238.67 1251.51 1238.67 1251.51 1123.55C1251.51 1114.37 1250.99 1108.14 1249.94 1104.86 1248.23 1099.61 1245.28 1095.38 1241.08 1092.17 1236.89 1088.95 1231.97 1087.35 1226.33 1087.35 1217.14 1087.35 1209.6 1090.82 1203.7 1097.78 1197.79 1104.73 1194.84 1116.14 1194.84 1132.02L1194.84 1238.67 1114.56 1238.67 1114.56 1029.69 1189.33 1029.69 1189.33 1060.19C1200.09 1047.47 1210.94 1038.41 1221.9 1033.04 1232.85 1027.66 1246.07 1024.97 1261.55 1024.97ZM3939.2 950.193 3939.2 1029.69 3983.28 1029.69 3983.28 1088.13 3939.2 1088.13 3939.2 1162.32C3939.2 1171.24 3940.05 1177.14 3941.76 1180.03 3944.38 1184.49 3948.98 1186.72 3955.53 1186.72 3961.44 1186.72 3969.7 1185.01 3980.33 1181.6L3986.23 1236.9C3966.42 1241.23 3947.93 1243.39 3930.74 1243.39 3910.8 1243.39 3896.11 1240.83 3886.66 1235.72 3877.22 1230.6 3870.23 1222.83 3865.71 1212.4 3861.18 1201.97 3858.92 1185.08 3858.92 1161.73L3858.92 1088.13 3829.4 1088.13 3829.4 1029.69 3858.92 1029.69 3858.92 991.32ZM3500.32 950.193 3500.32 1029.69 3544.4 1029.69 3544.4 1088.13 3500.32 1088.13 3500.32 1162.32C3500.32 1171.24 3501.18 1177.14 3502.88 1180.03 3505.51 1184.49 3510.1 1186.72 3516.66 1186.72 3522.56 1186.72 3530.83 1185.01 3541.45 1181.6L3547.35 1236.9C3527.55 1241.23 3509.05 1243.39 3491.86 1243.39 3471.92 1243.39 3457.23 1240.83 3447.79 1235.72 3438.34 1230.6 3431.35 1222.83 3426.83 1212.4 3422.3 1201.97 3420.04 1185.08 3420.04 1161.73L3420.04 1088.13 3390.52 1088.13 3390.52 1029.69 3420.04 1029.69 3420.04 991.32ZM2385.87 950.193 2483.08 950.193 2591.5 1238.67 2498.23 1238.67 2484.06 1191.05 2382.52 1191.05 2368.55 1238.67 2277.45 1238.67ZM1515.67 950.193 1595.76 950.193 1595.76 1004.7 1515.67 1004.7ZM722.554 950.193 802.839 950.193 802.839 1238.67 722.554 1238.67ZM592.823 950.193 673.108 950.193 673.108 1238.67 592.823 1238.67ZM463.288 950.193 543.377 950.193 543.377 1004.7 463.288 1004.7Z"
              stroke="#000000" stroke-width="5" stroke-linecap="butt" stroke-linejoin="round" stroke-miterlimit="10"
              stroke-opacity="1" fill="#FFC000" fill-rule="evenodd" fill-opacity="1"/>
        <text
                fill="#000000" fill-opacity="0" font-family="Arial,Arial_MSFontService,sans-serif" font-size="293.198"
                direction="ltr" writing-mode="lr-tb" x="463.288" y="1206.74">illumina Annotator
        </text>
    </g>
    </g>
</svg>