<svg version="1.1" xmlns="http://www.w3.org/2000/svg" xmlns:xlink="http://www.w3.org/1999/xlink" width="190" height="501.99999999999994"><style xmlns="http://www.w3.org/1999/xhtml"></style><defs/><g transform="translate(0,0)"><g><rect fill="#FFFFFF" stroke="none" x="0" y="0" width="190" height="501.99999999999994"/></g><g transform="translate(0,0) matrix(1,0,0,1,10,9.999999999999943)"><g><g transform="translate(0,0) scale(1.6,4.72)"><g><path fill="#d9ead3" stroke="none" stroke-dasharray="1.7976931348623157e+308" d="M 0 0 L 100 0 Q 100 0 100 0 L 100 100 Q 100 100 100 100 L 0 100 Q 0 100 0 100 L 0 0 Q 0 0 0 0 Z"/><g transform="scale(0.625,0.21186440677966104)"><path fill="none" stroke="none" stroke-dasharray="1.7976931348623157e+308" d="M 0 0 L 160 0 Q 160 0 160 0 L 160 472 Q 160 472 160 472 L 0 472 Q 0 472 0 472 L 0 0 Q 0 0 0 0 Z"/><path fill="none" stroke="#333333" stroke-dasharray="1.7976931348623157e+308" d="M 0 0 L 160 0 Q 160 0 160 0 L 160 472 Q 160 472 160 472 L 0 472 Q 0 472 0 472 L 0 0 Q 0 0 0 0 Z" stroke-miterlimit="10" stroke-width="2"/></g></g></g></g></g><g transform="translate(0,0) matrix(1,0,0,1,20,17.999999999999943)"><g><g transform="translate(0,0) scale(1.4,0.4)"><g><path fill="#000000" stroke="none" stroke-dasharray="1.7976931348623157e+308" d="M 0 0 L 100 0 Q 100 0 100 0 L 100 100 Q 100 100 100 100 L 0 100 Q 0 100 0 100 L 0 0 Q 0 0 0 0 Z"/><g transform="scale(0.7142857142857143,2.5)"><path fill="none" stroke="none" stroke-dasharray="1.7976931348623157e+308" d="M 0 0 L 140 0 Q 140 0 140 0 L 140 40 Q 140 40 140 40 L 0 40 Q 0 40 0 40 L 0 0 Q 0 0 0 0 Z"/><path fill="none" stroke="#333333" stroke-dasharray="1.7976931348623157e+308" d="M 0 0 L 140 0 Q 140 0 140 0 L 140 40 Q 140 40 140 40 L 0 40 Q 0 40 0 40 L 0 0 Q 0 0 0 0 Z" stroke-miterlimit="10" stroke-width="2"/></g></g></g></g></g><g transform="matrix(1,0,0,1,30,29)"><g><g><rect fill="rgb(0,0,0)" stroke="none" x="0" y="0" width="121" height="18" fill-opacity="0"/></g></g><g><g><rect fill="rgb(0,0,0)" stroke="none" x="0" y="0" width="121" height="18" fill-opacity="0"/></g></g><g><g><rect fill="rgb(0,0,0)" stroke="none" x="30.97500228881836" y="-1.6000001430511475" width="59" height="20" fill-opacity="0"/></g><text fill="rgb(255, 255, 255)" stroke="none" font-family="Helvetica" font-size="18px" font-style="normal" font-weight="normal" text-decoration="" line-height="18px" x="30.97500228881836" y="15.399999856948853">Header</text></g></g><g transform="translate(0,0) matrix(1,0,0,1,20,63)"><g><g transform="translate(0,0) scale(1.4,2.9)"><g><path fill="#fff2cc" stroke="none" stroke-dasharray="1.7976931348623157e+308" d="M 0 0 L 100 0 Q 100 0 100 0 L 100 100 Q 100 100 100 100 L 0 100 Q 0 100 0 100 L 0 0 Q 0 0 0 0 Z"/><g transform="scale(0.7142857142857143,0.3448275862068966)"><path fill="none" stroke="none" stroke-dasharray="1.7976931348623157e+308" d="M 0 0 L 140 0 Q 140 0 140 0 L 140 290 Q 140 290 140 290 L 0 290 Q 0 290 0 290 L 0 0 Q 0 0 0 0 Z"/><path fill="none" stroke="#333333" stroke-dasharray="1.7976931348623157e+308" d="M 0 0 L 140 0 Q 140 0 140 0 L 140 290 Q 140 290 140 290 L 0 290 Q 0 290 0 290 L 0 0 Q 0 0 0 0 Z" stroke-miterlimit="10" stroke-width="2"/></g></g></g></g></g><g transform="matrix(1,0,0,1,30,71)"><g><g><rect fill="rgb(0,0,0)" stroke="none" x="0" y="0" width="121" height="18" fill-opacity="0"/></g></g><g><g><rect fill="rgb(0,0,0)" stroke="none" x="0" y="0" width="121" height="18" fill-opacity="0"/></g></g><g><g><rect fill="rgb(0,0,0)" stroke="none" x="23.975000381469727" y="-1.6000001430511475" width="73" height="20" fill-opacity="0"/></g></g><g><g><rect fill="rgb(0,0,0)" stroke="none" x="23.975000381469727" y="-1.6000001430511475" width="73" height="20" fill-opacity="0"/></g><text fill="rgb(0, 0, 0)" stroke="none" font-family="Helvetica" font-size="18px" font-style="normal" font-weight="normal" text-decoration="" line-height="18px" x="23.975000381469727" y="15.399999856948853">Positions</text></g></g><g transform="translate(0,0) matrix(1,0,0,1,20,360)"><g><g transform="translate(0,0) scale(1.4,1.1199999999999999)"><g><path fill="#cfe2f3" stroke="none" stroke-dasharray="1.7976931348623157e+308" d="M 0 0 L 100 0 Q 100 0 100 0 L 100 100 Q 100 100 100 100 L 0 100 Q 0 100 0 100 L 0 0 Q 0 0 0 0 Z"/><g transform="scale(0.7142857142857143,0.8928571428571429)"><path fill="none" stroke="none" stroke-dasharray="1.7976931348623157e+308" d="M 0 0 L 140 0 Q 140 0 140 0 L 140 111.99999999999999 Q 140 111.99999999999999 140 111.99999999999999 L 0 111.99999999999999 Q 0 111.99999999999999 0 111.99999999999999 L 0 0 Q 0 0 0 0 Z"/><path fill="none" stroke="#333333" stroke-dasharray="1.7976931348623157e+308" d="M 0 0 L 140 0 Q 140 0 140 0 L 140 111.99999999999999 Q 140 111.99999999999999 140 111.99999999999999 L 0 111.99999999999999 Q 0 111.99999999999999 0 111.99999999999999 L 0 0 Q 0 0 0 0 Z" stroke-miterlimit="10" stroke-width="2"/></g></g></g></g></g><g transform="matrix(1,0,0,1,30,368)"><g><g><rect fill="rgb(0,0,0)" stroke="none" x="0" y="0" width="121" height="18" fill-opacity="0"/></g></g><g><g><rect fill="rgb(0,0,0)" stroke="none" x="0" y="0" width="121" height="18" fill-opacity="0"/></g></g><g><g><rect fill="rgb(0,0,0)" stroke="none" x="33.983333587646484" y="-1.6000001430511475" width="53" height="20" fill-opacity="0"/></g></g><g><g><rect fill="rgb(0,0,0)" stroke="none" x="33.983333587646484" y="-1.6000001430511475" width="53" height="20" fill-opacity="0"/></g><text fill="rgb(0, 0, 0)" stroke="none" font-family="Helvetica" font-size="18px" font-style="normal" font-weight="normal" text-decoration="" line-height="18px" x="33.983333587646484" y="15.399999856948853">Genes</text></g></g><g transform="translate(0,0) matrix(1,0,0,1,30,100)"><g><g transform="translate(0,0) scale(1.2,2)"><g><path fill="#ffe599" stroke="none" stroke-dasharray="1.7976931348623157e+308" d="M 0 0 L 100 0 Q 100 0 100 0 L 100 100 Q 100 100 100 100 L 0 100 Q 0 100 0 100 L 0 0 Q 0 0 0 0 Z"/><g transform="scale(0.8333333333333334,0.5)"><path fill="none" stroke="none" stroke-dasharray="1.7976931348623157e+308" d="M 0 0 L 120 0 Q 120 0 120 0 L 120 200 Q 120 200 120 200 L 0 200 Q 0 200 0 200 L 0 0 Q 0 0 0 0 Z"/><path fill="none" stroke="#333333" stroke-dasharray="1.7976931348623157e+308" d="M 0 0 L 120 0 Q 120 0 120 0 L 120 200 Q 120 200 120 200 L 0 200 Q 0 200 0 200 L 0 0 Q 0 0 0 0 Z" stroke-miterlimit="10" stroke-width="2"/></g></g></g></g></g><g transform="matrix(1,0,0,1,40,108)"><g><g><rect fill="rgb(0,0,0)" stroke="none" x="0" y="0" width="101" height="16" fill-opacity="0"/></g></g><g><g><rect fill="rgb(0,0,0)" stroke="none" x="0" y="0" width="101" height="16" fill-opacity="0"/></g></g><g><g><rect fill="rgb(0,0,0)" stroke="none" x="22.316667556762695" y="-1.0666667222976685" width="57" height="18" fill-opacity="0"/></g></g><g><g><rect fill="rgb(0,0,0)" stroke="none" x="22.316667556762695" y="-1.0666667222976685" width="57" height="18" fill-opacity="0"/></g><text fill="rgb(0, 0, 0)" stroke="none" font-family="Helvetica" font-size="16px" font-style="normal" font-weight="normal" text-decoration="" line-height="16px" x="22.316667556762695" y="12.933333277702332">Position</text></g></g><g transform="translate(0,0) matrix(1,0,0,1,30,313)"><g><g transform="translate(0,0) scale(1.2,0.3)"><g><path fill="#ffe599" stroke="none" stroke-dasharray="1.7976931348623157e+308" d="M 0 0 L 100 0 Q 100 0 100 0 L 100 100 Q 100 100 100 100 L 0 100 Q 0 100 0 100 L 0 0 Q 0 0 0 0 Z"/><g transform="scale(0.8333333333333334,3.3333333333333335)"><path fill="none" stroke="none" stroke-dasharray="1.7976931348623157e+308" d="M 0 0 L 120 0 Q 120 0 120 0 L 120 30 Q 120 30 120 30 L 0 30 Q 0 30 0 30 L 0 0 Q 0 0 0 0 Z"/><path fill="none" stroke="#333333" stroke-dasharray="1.7976931348623157e+308" d="M 0 0 L 120 0 Q 120 0 120 0 L 120 30 Q 120 30 120 30 L 0 30 Q 0 30 0 30 L 0 0 Q 0 0 0 0 Z" stroke-miterlimit="10" stroke-width="2"/></g></g></g></g></g><g transform="matrix(1,0,0,1,40,320)"><g><g><rect fill="rgb(0,0,0)" stroke="none" x="0" y="0" width="101" height="16" fill-opacity="0"/></g></g><g><g><rect fill="rgb(0,0,0)" stroke="none" x="0" y="0" width="101" height="16" fill-opacity="0"/></g></g><g><g><rect fill="rgb(0,0,0)" stroke="none" x="22.316667556762695" y="-1.0666667222976685" width="57" height="18" fill-opacity="0"/></g></g><g><g><rect fill="rgb(0,0,0)" stroke="none" x="22.316667556762695" y="-1.0666667222976685" width="57" height="18" fill-opacity="0"/></g><text fill="rgb(0, 0, 0)" stroke="none" font-family="Helvetica" font-size="16px" font-style="normal" font-weight="normal" text-decoration="" line-height="16px" x="22.316667556762695" y="12.933333277702332">Position</text></g></g><g transform="translate(0,0) matrix(1,0,0,1,40,134)"><g><g transform="translate(0,0) scale(1,1.11)"><g><path fill="#ffd966" stroke="none" stroke-dasharray="1.7976931348623157e+308" d="M 0 0 L 100 0 Q 100 0 100 0 L 100 100 Q 100 100 100 100 L 0 100 Q 0 100 0 100 L 0 0 Q 0 0 0 0 Z"/><g transform="scale(1,0.9009009009009008)"><path fill="none" stroke="none" stroke-dasharray="1.7976931348623157e+308" d="M 0 0 L 100 0 Q 100 0 100 0 L 100 111.00000000000001 Q 100 111.00000000000001 100 111.00000000000001 L 0 111.00000000000001 Q 0 111.00000000000001 0 111.00000000000001 L 0 0 Q 0 0 0 0 Z"/><path fill="none" stroke="#333333" stroke-dasharray="1.7976931348623157e+308" d="M 0 0 L 100 0 Q 100 0 100 0 L 100 111.00000000000001 Q 100 111.00000000000001 100 111.00000000000001 L 0 111.00000000000001 Q 0 111.00000000000001 0 111.00000000000001 L 0 0 Q 0 0 0 0 Z" stroke-miterlimit="10" stroke-width="2"/></g></g></g></g></g><g transform="matrix(1,0,0,1,49,142)"><g><g><rect fill="rgb(0,0,0)" stroke="none" x="0" y="0" width="82" height="16" fill-opacity="0"/></g></g><g><g><rect fill="rgb(0,0,0)" stroke="none" x="0" y="0" width="82" height="16" fill-opacity="0"/></g></g><g><g><rect fill="rgb(0,0,0)" stroke="none" x="16.316667556762695" y="-1.0666667222976685" width="49" height="18" fill-opacity="0"/></g></g><g><g><rect fill="rgb(0,0,0)" stroke="none" x="16.316667556762695" y="-1.0666667222976685" width="49" height="18" fill-opacity="0"/></g><text fill="rgb(0, 0, 0)" stroke="none" font-family="Helvetica" font-size="16px" font-style="normal" font-weight="normal" text-decoration="" line-height="16px" x="16.316667556762695" y="12.933333277702332">Variant</text></g></g><g transform="translate(0,0) matrix(1,0,0,1,50,168)"><g><g transform="translate(0,0) scale(0.8,0.3)"><g><path fill="#f1c232" stroke="none" stroke-dasharray="1.7976931348623157e+308" d="M 0 0 L 100 0 Q 100 0 100 0 L 100 100 Q 100 100 100 100 L 0 100 Q 0 100 0 100 L 0 0 Q 0 0 0 0 Z"/><g transform="scale(1.25,3.3333333333333335)"><path fill="none" stroke="none" stroke-dasharray="1.7976931348623157e+308" d="M 0 0 L 80 0 Q 80 0 80 0 L 80 30 Q 80 30 80 30 L 0 30 Q 0 30 0 30 L 0 0 Q 0 0 0 0 Z"/><path fill="none" stroke="#333333" stroke-dasharray="1.7976931348623157e+308" d="M 0 0 L 80 0 Q 80 0 80 0 L 80 30 Q 80 30 80 30 L 0 30 Q 0 30 0 30 L 0 0 Q 0 0 0 0 Z" stroke-miterlimit="10" stroke-width="2"/></g></g></g></g></g><g transform="matrix(1,0,0,1,59,176)"><g><g><rect fill="rgb(0,0,0)" stroke="none" x="0" y="0" width="63" height="14" fill-opacity="0"/></g></g><g><g><rect fill="rgb(0,0,0)" stroke="none" x="0" y="0" width="63" height="14" fill-opacity="0"/></g></g><g><g><rect fill="rgb(0,0,0)" stroke="none" x="0.491666704416275" y="-1.0666667222976685" width="62" height="16" fill-opacity="0"/></g></g><g><g><rect fill="rgb(0,0,0)" stroke="none" x="0.491666704416275" y="-1.0666667222976685" width="62" height="16" fill-opacity="0"/></g><text fill="rgb(0, 0, 0)" stroke="none" font-family="Helvetica" font-size="14px" font-style="normal" font-weight="normal" text-decoration="" line-height="14px" x="0.491666704416275" y="10.933333277702332">Transcript</text></g></g><g transform="translate(0,0) matrix(1,0,0,1,50,207)"><g><g transform="translate(0,0) scale(0.8,0.3)"><g><path fill="#f1c232" stroke="none" stroke-dasharray="1.7976931348623157e+308" d="M 0 0 L 100 0 Q 100 0 100 0 L 100 100 Q 100 100 100 100 L 0 100 Q 0 100 0 100 L 0 0 Q 0 0 0 0 Z"/><g transform="scale(1.25,3.3333333333333335)"><path fill="none" stroke="none" stroke-dasharray="1.7976931348623157e+308" d="M 0 0 L 80 0 Q 80 0 80 0 L 80 30 Q 80 30 80 30 L 0 30 Q 0 30 0 30 L 0 0 Q 0 0 0 0 Z"/><path fill="none" stroke="#333333" stroke-dasharray="1.7976931348623157e+308" d="M 0 0 L 80 0 Q 80 0 80 0 L 80 30 Q 80 30 80 30 L 0 30 Q 0 30 0 30 L 0 0 Q 0 0 0 0 Z" stroke-miterlimit="10" stroke-width="2"/></g></g></g></g></g><g transform="matrix(1,0,0,1,59,215)"><g><g><rect fill="rgb(0,0,0)" stroke="none" x="0" y="0" width="63" height="14" fill-opacity="0"/></g></g><g><g><rect fill="rgb(0,0,0)" stroke="none" x="0" y="0" width="63" height="14" fill-opacity="0"/></g></g><g><g><rect fill="rgb(0,0,0)" stroke="none" x="0.491666704416275" y="-1.0666667222976685" width="62" height="16" fill-opacity="0"/></g></g><g><g><rect fill="rgb(0,0,0)" stroke="none" x="0.491666704416275" y="-1.0666667222976685" width="62" height="16" fill-opacity="0"/></g><text fill="rgb(0, 0, 0)" stroke="none" font-family="Helvetica" font-size="14px" font-style="normal" font-weight="normal" text-decoration="" line-height="14px" x="0.491666704416275" y="10.933333277702332">Transcript</text></g></g><g transform="translate(0,0) matrix(1,0,0,1,40,255)"><g><g transform="translate(0,0) scale(1,0.34)"><g><path fill="#ffd966" stroke="none" stroke-dasharray="1.7976931348623157e+308" d="M 0 0 L 100 0 Q 100 0 100 0 L 100 100 Q 100 100 100 100 L 0 100 Q 0 100 0 100 L 0 0 Q 0 0 0 0 Z"/><g transform="scale(1,2.941176470588235)"><path fill="none" stroke="none" stroke-dasharray="1.7976931348623157e+308" d="M 0 0 L 100 0 Q 100 0 100 0 L 100 34 Q 100 34 100 34 L 0 34 Q 0 34 0 34 L 0 0 Q 0 0 0 0 Z"/><path fill="none" stroke="#333333" stroke-dasharray="1.7976931348623157e+308" d="M 0 0 L 100 0 Q 100 0 100 0 L 100 34 Q 100 34 100 34 L 0 34 Q 0 34 0 34 L 0 0 Q 0 0 0 0 Z" stroke-miterlimit="10" stroke-width="2"/></g></g></g></g></g><g transform="matrix(1,0,0,1,49,263)"><g><g><rect fill="rgb(0,0,0)" stroke="none" x="0" y="0" width="82" height="16" fill-opacity="0"/></g></g><g><g><rect fill="rgb(0,0,0)" stroke="none" x="0" y="0" width="82" height="16" fill-opacity="0"/></g></g><g><g><rect fill="rgb(0,0,0)" stroke="none" x="16.316667556762695" y="-1.0666667222976685" width="49" height="18" fill-opacity="0"/></g></g><g><g><rect fill="rgb(0,0,0)" stroke="none" x="16.316667556762695" y="-1.0666667222976685" width="49" height="18" fill-opacity="0"/></g><text fill="rgb(0, 0, 0)" stroke="none" font-family="Helvetica" font-size="16px" font-style="normal" font-weight="normal" text-decoration="" line-height="16px" x="16.316667556762695" y="12.933333277702332">Variant</text></g></g><g transform="translate(0,0) matrix(1,0,0,1,30,395)"><g><g transform="translate(0,0) scale(1.2,0.3)"><g><path fill="#9fc5e8" stroke="none" stroke-dasharray="1.7976931348623157e+308" d="M 0 0 L 100 0 Q 100 0 100 0 L 100 100 Q 100 100 100 100 L 0 100 Q 0 100 0 100 L 0 0 Q 0 0 0 0 Z"/><g transform="scale(0.8333333333333334,3.3333333333333335)"><path fill="none" stroke="none" stroke-dasharray="1.7976931348623157e+308" d="M 0 0 L 120 0 Q 120 0 120 0 L 120 30 Q 120 30 120 30 L 0 30 Q 0 30 0 30 L 0 0 Q 0 0 0 0 Z"/><path fill="none" stroke="#333333" stroke-dasharray="1.7976931348623157e+308" d="M 0 0 L 120 0 Q 120 0 120 0 L 120 30 Q 120 30 120 30 L 0 30 Q 0 30 0 30 L 0 0 Q 0 0 0 0 Z" stroke-miterlimit="10" stroke-width="2"/></g></g></g></g></g><g transform="matrix(1,0,0,1,40,403)"><g><g><rect fill="rgb(0,0,0)" stroke="none" x="0" y="0" width="101" height="18" fill-opacity="0"/></g></g><g><g><rect fill="rgb(0,0,0)" stroke="none" x="0" y="0" width="101" height="18" fill-opacity="0"/></g></g><g><g><rect fill="rgb(0,0,0)" stroke="none" x="28.76666831970215" y="-1.6000001430511475" width="44" height="20" fill-opacity="0"/></g></g><g><g><rect fill="rgb(0,0,0)" stroke="none" x="28.76666831970215" y="-1.6000001430511475" width="44" height="20" fill-opacity="0"/></g><text fill="rgb(0, 0, 0)" stroke="none" font-family="Helvetica" font-size="18px" font-style="normal" font-weight="normal" text-decoration="" line-height="18px" x="28.76666831970215" y="15.399999856948853">Gene</text></g></g><g transform="translate(0,0) matrix(1,0,0,1,30,432)"><g><g transform="translate(0,0) scale(1.2,0.3)"><g><path fill="#9fc5e8" stroke="none" stroke-dasharray="1.7976931348623157e+308" d="M 0 0 L 100 0 Q 100 0 100 0 L 100 100 Q 100 100 100 100 L 0 100 Q 0 100 0 100 L 0 0 Q 0 0 0 0 Z"/><g transform="scale(0.8333333333333334,3.3333333333333335)"><path fill="none" stroke="none" stroke-dasharray="1.7976931348623157e+308" d="M 0 0 L 120 0 Q 120 0 120 0 L 120 30 Q 120 30 120 30 L 0 30 Q 0 30 0 30 L 0 0 Q 0 0 0 0 Z"/><path fill="none" stroke="#333333" stroke-dasharray="1.7976931348623157e+308" d="M 0 0 L 120 0 Q 120 0 120 0 L 120 30 Q 120 30 120 30 L 0 30 Q 0 30 0 30 L 0 0 Q 0 0 0 0 Z" stroke-miterlimit="10" stroke-width="2"/></g></g></g></g></g><g transform="matrix(1,0,0,1,40,440)"><g><g><rect fill="rgb(0,0,0)" stroke="none" x="0" y="0" width="101" height="18" fill-opacity="0"/></g></g><g><g><rect fill="rgb(0,0,0)" stroke="none" x="0" y="0" width="101" height="18" fill-opacity="0"/></g></g><g><g><rect fill="rgb(0,0,0)" stroke="none" x="28.76666831970215" y="-1.6000001430511475" width="44" height="20" fill-opacity="0"/></g></g><g><g><rect fill="rgb(0,0,0)" stroke="none" x="28.76666831970215" y="-1.6000001430511475" width="44" height="20" fill-opacity="0"/></g><text fill="rgb(0, 0, 0)" stroke="none" font-family="Helvetica" font-size="18px" font-style="normal" font-weight="normal" text-decoration="" line-height="18px" x="28.76666831970215" y="15.399999856948853">Gene</text></g></g></g></svg>