<?xml version="1.0" encoding="utf-8"?>
<!-- Generator: Adobe Illustrator 25.1.0, SVG Export Plug-In . SVG Version: 6.00 Build 0)  -->
<svg version="1.1" id="Layer_1" xmlns="http://www.w3.org/2000/svg" xmlns:xlink="http://www.w3.org/1999/xlink" x="0px" y="0px"
	 viewBox="0 0 384.99 121.51" style="enable-background:new 0 0 384.99 121.51;" xml:space="preserve">
<style type="text/css">
	.st0{fill:none;stroke:#FF9400;stroke-width:2;stroke-miterlimit:10;}
	.st1{fill:none;stroke:#1ED615;stroke-width:2;stroke-miterlimit:10;}
	.st2{fill:#455FAC;stroke:#231F20;stroke-width:0.5;stroke-miterlimit:10;}
	.st3{fill:#FF9400;stroke:#000000;stroke-width:0.5;stroke-miterlimit:10;}
	.st4{fill:#1ED615;stroke:#000000;stroke-width:0.5;stroke-miterlimit:10;}
	.st5{fill:#FFFFFF;}
	.st6{fill:#231F20;}
	.st7{fill:none;stroke:#FFFFFF;stroke-miterlimit:10;}
</style>
<path class="st0" d="M144.87,109.76c19.13,0,32.85-13.55,42.45-20.13c35.65-24.44,120.8-22.02,120.8-22.02
	c19.13,0,34.65-9.44,34.65-21.07s-15.51-21.07-34.65-21.07"/>
<path class="st1" d="M240.76,109.76c-19.13,0-32.85-13.55-42.45-20.13C162.65,65.19,77.5,67.61,77.5,67.61
	c-19.13,0-34.65-9.44-34.65-21.07S58.37,25.46,77.5,25.46"/>
<rect x="88.78" y="13.96" class="st2" width="207.42" height="23"/>
<g>
	<path d="M180.24,10.4c-0.93,0-1.65-0.29-2.16-0.86s-0.76-1.38-0.76-2.43c0-1.07,0.26-1.9,0.78-2.49s1.25-0.88,2.21-0.88
		c0.31,0,0.62,0.03,0.93,0.1s0.55,0.14,0.73,0.23l-0.3,0.83c-0.21-0.09-0.45-0.16-0.7-0.21s-0.48-0.08-0.67-0.08
		c-1.3,0-1.96,0.83-1.96,2.5c0,0.79,0.16,1.39,0.48,1.82s0.79,0.63,1.42,0.63c0.54,0,1.08-0.12,1.65-0.35v0.86
		C181.44,10.29,180.9,10.4,180.24,10.4z"/>
	<path d="M187.78,10.28V6.13c0-0.52-0.12-0.91-0.36-1.17s-0.61-0.39-1.12-0.39c-0.68,0-1.17,0.18-1.48,0.55s-0.47,0.97-0.47,1.8
		v3.36h-0.97V1.17h0.97v2.76c0,0.33-0.02,0.61-0.05,0.83h0.06c0.19-0.31,0.46-0.55,0.82-0.73s0.76-0.27,1.21-0.27
		c0.79,0,1.37,0.19,1.77,0.56s0.59,0.97,0.59,1.78v4.19H187.78z"/>
	<path d="M193.68,3.74c0.29,0,0.54,0.02,0.77,0.07l-0.13,0.9c-0.27-0.06-0.5-0.09-0.7-0.09c-0.52,0-0.96,0.21-1.33,0.63
		s-0.55,0.95-0.55,1.58v3.45h-0.97V3.86h0.8l0.11,1.19h0.05c0.24-0.42,0.53-0.74,0.86-0.97S193.28,3.74,193.68,3.74z"/>
	<path d="M198.81,10.28h-0.95V4.18c0-0.51,0.02-0.99,0.05-1.44c-0.08,0.08-0.17,0.17-0.28,0.26s-0.57,0.47-1.39,1.14l-0.52-0.67
		l2.27-1.75h0.82V10.28z"/>
	<path d="M207.7,10.28h-5.63V9.45l2.26-2.27c0.69-0.7,1.14-1.19,1.36-1.49s0.38-0.59,0.49-0.87s0.16-0.58,0.16-0.91
		c0-0.46-0.14-0.82-0.42-1.09s-0.66-0.4-1.15-0.4c-0.36,0-0.69,0.06-1.01,0.18s-0.67,0.33-1.06,0.64l-0.52-0.66
		c0.79-0.66,1.65-0.98,2.58-0.98c0.8,0,1.44,0.21,1.89,0.62s0.69,0.97,0.69,1.66c0,0.54-0.15,1.08-0.46,1.61s-0.88,1.2-1.71,2.02
		l-1.88,1.83v0.05h4.41V10.28z"/>
</g>
<g>
	<circle class="st3" cx="296.37" cy="25.46" r="11.5"/>
	<g>
		<path d="M300.51,31.91l-1.6-4.09h-5.15l-1.58,4.09h-1.51l5.08-12.9h1.26l5.05,12.9H300.51z M298.45,26.48l-1.49-3.98
			c-0.19-0.5-0.39-1.12-0.6-1.85c-0.13,0.56-0.31,1.18-0.55,1.85l-1.51,3.98H298.45z"/>
	</g>
</g>
<g>
	<path d="M249.05,10.83h-0.79V5.74c0-0.42,0.01-0.82,0.04-1.2c-0.07,0.07-0.15,0.14-0.23,0.21s-0.47,0.39-1.16,0.95l-0.43-0.56
		l1.89-1.46h0.68V10.83z"/>
	<path d="M256.46,10.83h-4.69v-0.7l1.88-1.89c0.57-0.58,0.95-0.99,1.13-1.24s0.32-0.49,0.41-0.72s0.14-0.49,0.14-0.76
		c0-0.38-0.12-0.68-0.35-0.91s-0.55-0.33-0.96-0.33c-0.3,0-0.58,0.05-0.84,0.15s-0.56,0.27-0.89,0.53l-0.43-0.55
		c0.66-0.55,1.37-0.82,2.15-0.82c0.67,0,1.2,0.17,1.58,0.52s0.57,0.8,0.57,1.38c0,0.45-0.13,0.9-0.38,1.34s-0.73,1-1.43,1.68
		l-1.56,1.53v0.04h3.67V10.83z"/>
	<path d="M258.71,9.66l0.07,0.11c-0.08,0.33-0.21,0.7-0.37,1.14s-0.33,0.83-0.5,1.2h-0.61c0.09-0.34,0.18-0.76,0.29-1.25
		s0.18-0.9,0.22-1.2H258.71z"/>
	<path d="M264.67,7.25c0,1.23-0.19,2.15-0.58,2.76s-0.98,0.91-1.78,0.91c-0.77,0-1.35-0.31-1.75-0.94s-0.6-1.54-0.6-2.74
		c0-1.24,0.19-2.17,0.58-2.77s0.98-0.9,1.77-0.9c0.77,0,1.36,0.31,1.77,0.94S264.67,6.05,264.67,7.25z M260.77,7.25
		c0,1.04,0.12,1.79,0.37,2.27s0.63,0.71,1.17,0.71c0.54,0,0.93-0.24,1.17-0.72s0.36-1.23,0.36-2.26s-0.12-1.78-0.36-2.25
		s-0.63-0.72-1.17-0.72c-0.53,0-0.92,0.24-1.17,0.71S260.77,6.21,260.77,7.25z"/>
	<path d="M270.35,10.83h-4.69v-0.7l1.88-1.89c0.57-0.58,0.95-0.99,1.13-1.24s0.32-0.49,0.41-0.72s0.14-0.49,0.14-0.76
		c0-0.38-0.12-0.68-0.35-0.91s-0.55-0.33-0.96-0.33c-0.3,0-0.58,0.05-0.84,0.15s-0.56,0.27-0.89,0.53l-0.43-0.55
		c0.66-0.55,1.37-0.82,2.15-0.82c0.67,0,1.2,0.17,1.58,0.52s0.57,0.8,0.57,1.38c0,0.45-0.13,0.9-0.38,1.34s-0.73,1-1.43,1.68
		l-1.56,1.53v0.04h3.67V10.83z"/>
	<path d="M271.46,7.77c0-1.4,0.27-2.45,0.82-3.15s1.35-1.04,2.42-1.04c0.37,0,0.66,0.03,0.87,0.09v0.7
		c-0.25-0.08-0.54-0.12-0.86-0.12c-0.77,0-1.35,0.24-1.75,0.72s-0.62,1.23-0.66,2.25h0.06c0.36-0.56,0.92-0.84,1.7-0.84
		c0.64,0,1.15,0.19,1.52,0.58s0.55,0.91,0.55,1.58c0,0.74-0.2,1.33-0.61,1.75s-0.95,0.64-1.64,0.64c-0.74,0-1.32-0.28-1.76-0.83
		S271.46,8.76,271.46,7.77z M273.85,10.23c0.46,0,0.82-0.15,1.08-0.44s0.38-0.71,0.38-1.26c0-0.47-0.12-0.84-0.36-1.11
		s-0.59-0.41-1.06-0.41c-0.29,0-0.56,0.06-0.81,0.18s-0.44,0.29-0.58,0.5s-0.22,0.43-0.22,0.66c0,0.34,0.06,0.65,0.2,0.94
		s0.31,0.52,0.55,0.69S273.55,10.23,273.85,10.23z"/>
	<path d="M278.31,9.66l0.07,0.11c-0.08,0.33-0.21,0.7-0.37,1.14s-0.33,0.83-0.5,1.2h-0.61c0.09-0.34,0.18-0.76,0.29-1.25
		s0.18-0.9,0.22-1.2H278.31z"/>
	<path d="M283.97,5.37c0,0.46-0.13,0.83-0.38,1.12s-0.62,0.48-1.09,0.58V7.1c0.57,0.07,1,0.25,1.27,0.55s0.42,0.68,0.42,1.15
		c0,0.68-0.24,1.2-0.71,1.57s-1.14,0.55-2.01,0.55c-0.38,0-0.72-0.03-1.04-0.09s-0.62-0.16-0.92-0.3V9.77
		c0.31,0.15,0.64,0.27,0.99,0.35s0.68,0.12,0.99,0.12c1.23,0,1.85-0.48,1.85-1.45c0-0.87-0.68-1.3-2.04-1.3h-0.7v-0.7h0.71
		c0.56,0,1-0.12,1.32-0.37s0.49-0.59,0.49-1.02c0-0.35-0.12-0.62-0.36-0.82s-0.56-0.3-0.97-0.3c-0.31,0-0.61,0.04-0.88,0.13
		s-0.59,0.24-0.95,0.47l-0.41-0.55c0.29-0.23,0.63-0.41,1.01-0.54s0.79-0.2,1.21-0.2c0.69,0,1.23,0.16,1.62,0.48
		S283.97,4.81,283.97,5.37z"/>
	<path d="M289.99,7.25c0,1.23-0.19,2.15-0.58,2.76s-0.98,0.91-1.78,0.91c-0.77,0-1.35-0.31-1.75-0.94s-0.6-1.54-0.6-2.74
		c0-1.24,0.19-2.17,0.58-2.77s0.98-0.9,1.77-0.9c0.77,0,1.36,0.31,1.77,0.94S289.99,6.05,289.99,7.25z M286.09,7.25
		c0,1.04,0.12,1.79,0.37,2.27s0.63,0.71,1.17,0.71c0.54,0,0.93-0.24,1.17-0.72s0.36-1.23,0.36-2.26s-0.12-1.78-0.36-2.25
		s-0.63-0.72-1.17-0.72c-0.53,0-0.92,0.24-1.17,0.71S286.09,6.21,286.09,7.25z"/>
	<path d="M293.21,6.46c0.75,0,1.34,0.19,1.77,0.56s0.65,0.88,0.65,1.53c0,0.74-0.24,1.32-0.71,1.74s-1.12,0.63-1.95,0.63
		c-0.8,0-1.42-0.13-1.84-0.39V9.76c0.23,0.15,0.51,0.26,0.85,0.34s0.67,0.12,1,0.12c0.57,0,1.02-0.14,1.34-0.41s0.48-0.66,0.48-1.17
		c0-1-0.61-1.49-1.83-1.49c-0.31,0-0.72,0.05-1.24,0.14l-0.42-0.27l0.27-3.34h3.55v0.75h-2.86l-0.18,2.14
		C292.47,6.5,292.84,6.46,293.21,6.46z"/>
</g>
<g>
	<path d="M4.29,94.7c-0.93,0-1.65-0.29-2.16-0.86s-0.76-1.38-0.76-2.43c0-1.07,0.26-1.9,0.78-2.49s1.25-0.88,2.21-0.88
		c0.31,0,0.62,0.03,0.93,0.1S5.83,88.28,6,88.37L5.7,89.2c-0.21-0.09-0.45-0.16-0.7-0.21S4.52,88.9,4.33,88.9
		c-1.3,0-1.96,0.83-1.96,2.5c0,0.79,0.16,1.39,0.48,1.82s0.79,0.63,1.42,0.63c0.54,0,1.08-0.12,1.65-0.35v0.86
		C5.48,94.59,4.94,94.7,4.29,94.7z"/>
	<path d="M11.83,94.58v-4.15c0-0.52-0.12-0.91-0.36-1.17s-0.61-0.39-1.12-0.39c-0.68,0-1.17,0.18-1.48,0.55s-0.47,0.97-0.47,1.8
		v3.36H7.43v-9.12H8.4v2.76c0,0.33-0.02,0.61-0.05,0.83h0.06c0.19-0.31,0.46-0.55,0.82-0.73s0.76-0.27,1.21-0.27
		c0.79,0,1.37,0.19,1.77,0.56s0.59,0.97,0.59,1.78v4.19H11.83z"/>
	<path d="M17.73,88.04c0.29,0,0.54,0.02,0.77,0.07l-0.13,0.9c-0.27-0.06-0.5-0.09-0.7-0.09c-0.52,0-0.96,0.21-1.33,0.63
		c-0.37,0.42-0.55,0.95-0.55,1.58v3.45H14.8v-6.42h0.8l0.11,1.19h0.05c0.24-0.42,0.53-0.74,0.86-0.97S17.32,88.04,17.73,88.04z"/>
	<path d="M24.88,94.58h-5.63v-0.84l2.26-2.27c0.69-0.7,1.14-1.19,1.36-1.49s0.38-0.59,0.49-0.87s0.16-0.58,0.16-0.91
		c0-0.46-0.14-0.82-0.42-1.09s-0.66-0.4-1.15-0.4c-0.36,0-0.69,0.06-1.01,0.18s-0.67,0.33-1.06,0.64l-0.52-0.66
		c0.79-0.66,1.65-0.98,2.58-0.98c0.8,0,1.44,0.21,1.89,0.62s0.69,0.97,0.69,1.66c0,0.54-0.15,1.08-0.46,1.61s-0.88,1.2-1.71,2.02
		l-1.88,1.83v0.05h4.41V94.58z"/>
	<path d="M29.72,94.58h-0.95v-6.11c0-0.51,0.02-0.99,0.05-1.44c-0.08,0.08-0.17,0.17-0.28,0.26s-0.57,0.47-1.39,1.14l-0.52-0.67
		l2.27-1.75h0.82V94.58z"/>
</g>
<g>
	<path d="M86.85,89.66c0,0.46-0.13,0.83-0.38,1.12s-0.62,0.48-1.09,0.58v0.04c0.57,0.07,1,0.25,1.27,0.55s0.42,0.68,0.42,1.15
		c0,0.68-0.24,1.2-0.71,1.57s-1.14,0.55-2.01,0.55c-0.38,0-0.72-0.03-1.04-0.09s-0.62-0.16-0.92-0.3v-0.77
		c0.31,0.15,0.64,0.27,0.99,0.35s0.68,0.12,0.99,0.12c1.23,0,1.85-0.48,1.85-1.45c0-0.87-0.68-1.3-2.04-1.3h-0.7v-0.7h0.71
		c0.56,0,1-0.12,1.32-0.37s0.49-0.59,0.49-1.02c0-0.35-0.12-0.62-0.36-0.82s-0.56-0.3-0.97-0.3c-0.31,0-0.61,0.04-0.88,0.13
		s-0.59,0.24-0.95,0.47l-0.41-0.55c0.29-0.23,0.63-0.41,1.01-0.54s0.79-0.2,1.21-0.2c0.69,0,1.23,0.16,1.62,0.48
		S86.85,89.11,86.85,89.66z"/>
	<path d="M88.23,92.07c0-1.4,0.27-2.45,0.82-3.15s1.35-1.04,2.42-1.04c0.37,0,0.66,0.03,0.87,0.09v0.7
		c-0.25-0.08-0.54-0.12-0.86-0.12c-0.77,0-1.35,0.24-1.75,0.72s-0.62,1.23-0.66,2.25h0.06c0.36-0.56,0.92-0.84,1.7-0.84
		c0.64,0,1.15,0.19,1.52,0.58s0.55,0.91,0.55,1.58c0,0.74-0.2,1.33-0.61,1.75s-0.95,0.64-1.64,0.64c-0.74,0-1.32-0.28-1.76-0.83
		S88.23,93.06,88.23,92.07z M90.63,94.53c0.46,0,0.82-0.15,1.08-0.44s0.38-0.71,0.38-1.26c0-0.47-0.12-0.84-0.36-1.11
		s-0.59-0.41-1.06-0.41c-0.29,0-0.56,0.06-0.81,0.18s-0.44,0.29-0.58,0.5s-0.22,0.43-0.22,0.66c0,0.34,0.06,0.65,0.2,0.94
		s0.31,0.52,0.55,0.69S90.32,94.53,90.63,94.53z"/>
	<path d="M95.08,93.96l0.07,0.11c-0.08,0.33-0.21,0.7-0.37,1.14s-0.33,0.83-0.5,1.2h-0.61c0.09-0.34,0.18-0.76,0.29-1.25
		s0.18-0.9,0.22-1.2H95.08z"/>
	<path d="M101.34,93.48h-1.06v1.64h-0.78v-1.64h-3.47v-0.71l3.39-4.83h0.86v4.8h1.06V93.48z M99.51,92.74v-2.37
		c0-0.47,0.02-0.99,0.05-1.58h-0.04c-0.16,0.31-0.3,0.57-0.44,0.78l-2.23,3.17H99.51z"/>
	<path d="M106.72,95.12h-4.69v-0.7l1.88-1.89c0.57-0.58,0.95-0.99,1.13-1.24s0.32-0.49,0.41-0.72s0.14-0.49,0.14-0.76
		c0-0.38-0.12-0.68-0.35-0.91s-0.55-0.33-0.96-0.33c-0.3,0-0.58,0.05-0.84,0.15s-0.56,0.27-0.89,0.53l-0.43-0.55
		c0.66-0.55,1.37-0.82,2.15-0.82c0.67,0,1.2,0.17,1.58,0.52s0.57,0.8,0.57,1.38c0,0.45-0.13,0.9-0.38,1.34s-0.73,1-1.43,1.68
		l-1.56,1.53v0.04h3.67V95.12z"/>
	<path d="M112.48,91.54c0,1.23-0.19,2.15-0.58,2.76s-0.98,0.91-1.78,0.91c-0.77,0-1.35-0.31-1.75-0.94s-0.6-1.54-0.6-2.74
		c0-1.24,0.19-2.17,0.58-2.77s0.98-0.9,1.77-0.9c0.77,0,1.36,0.31,1.77,0.94S112.48,90.35,112.48,91.54z M108.58,91.54
		c0,1.04,0.12,1.79,0.37,2.27s0.63,0.71,1.17,0.71c0.54,0,0.93-0.24,1.17-0.72s0.36-1.23,0.36-2.26s-0.12-1.78-0.36-2.25
		s-0.63-0.72-1.17-0.72c-0.53,0-0.92,0.24-1.17,0.71S108.58,90.5,108.58,91.54z"/>
	<path d="M114.69,93.96l0.07,0.11c-0.08,0.33-0.21,0.7-0.37,1.14s-0.33,0.83-0.5,1.2h-0.61c0.09-0.34,0.18-0.76,0.29-1.25
		s0.18-0.9,0.22-1.2H114.69z"/>
	<path d="M118.15,90.76c0.75,0,1.34,0.19,1.77,0.56s0.65,0.88,0.65,1.53c0,0.74-0.24,1.32-0.71,1.74s-1.12,0.63-1.95,0.63
		c-0.8,0-1.42-0.13-1.84-0.39v-0.78c0.23,0.15,0.51,0.26,0.85,0.34s0.67,0.12,1,0.12c0.57,0,1.02-0.14,1.34-0.41
		s0.48-0.66,0.48-1.17c0-1-0.61-1.49-1.83-1.49c-0.31,0-0.72,0.05-1.24,0.14l-0.42-0.27l0.27-3.34h3.55v0.75h-2.86l-0.18,2.14
		C117.41,90.8,117.78,90.76,118.15,90.76z"/>
	<path d="M122.54,95.12l2.96-6.39h-3.89v-0.75h4.75v0.65l-2.92,6.49H122.54z"/>
	<path d="M130.36,95.12h-0.79v-5.09c0-0.42,0.01-0.82,0.04-1.2c-0.07,0.07-0.15,0.14-0.23,0.21s-0.47,0.39-1.16,0.95l-0.43-0.56
		l1.89-1.46h0.68V95.12z"/>
</g>
<g>
	<path d="M94.76,10.83h-0.79V5.74c0-0.42,0.01-0.82,0.04-1.2c-0.07,0.07-0.15,0.14-0.23,0.21S93.3,5.14,92.61,5.7l-0.43-0.56
		l1.89-1.46h0.68V10.83z"/>
	<path d="M102.16,10.83h-4.69v-0.7l1.88-1.89c0.57-0.58,0.95-0.99,1.13-1.24s0.32-0.49,0.41-0.72s0.14-0.49,0.14-0.76
		c0-0.38-0.12-0.68-0.35-0.91s-0.55-0.33-0.96-0.33c-0.3,0-0.58,0.05-0.84,0.15s-0.56,0.27-0.89,0.53L97.56,4.4
		c0.66-0.55,1.37-0.82,2.15-0.82c0.67,0,1.2,0.17,1.58,0.52s0.57,0.8,0.57,1.38c0,0.45-0.13,0.9-0.38,1.34s-0.73,1-1.43,1.68
		l-1.56,1.53v0.04h3.67V10.83z"/>
	<path d="M104.41,9.66l0.07,0.11c-0.08,0.33-0.21,0.7-0.37,1.14s-0.33,0.83-0.5,1.2h-0.61c0.09-0.34,0.18-0.76,0.29-1.25
		s0.18-0.9,0.22-1.2H104.41z"/>
	<path d="M110.37,7.25c0,1.23-0.19,2.15-0.58,2.76s-0.98,0.91-1.78,0.91c-0.77,0-1.35-0.31-1.75-0.94s-0.6-1.54-0.6-2.74
		c0-1.24,0.19-2.17,0.58-2.77s0.98-0.9,1.77-0.9c0.77,0,1.36,0.31,1.77,0.94S110.37,6.05,110.37,7.25z M106.47,7.25
		c0,1.04,0.12,1.79,0.37,2.27s0.63,0.71,1.17,0.71c0.54,0,0.93-0.24,1.17-0.72s0.36-1.23,0.36-2.26s-0.12-1.78-0.36-2.25
		s-0.63-0.72-1.17-0.72c-0.53,0-0.92,0.24-1.17,0.71S106.47,6.21,106.47,7.25z"/>
	<path d="M116.05,10.83h-4.69v-0.7l1.88-1.89c0.57-0.58,0.95-0.99,1.13-1.24s0.32-0.49,0.41-0.72s0.14-0.49,0.14-0.76
		c0-0.38-0.12-0.68-0.35-0.91s-0.55-0.33-0.96-0.33c-0.3,0-0.58,0.05-0.84,0.15s-0.56,0.27-0.89,0.53l-0.43-0.55
		c0.66-0.55,1.37-0.82,2.15-0.82c0.67,0,1.2,0.17,1.58,0.52s0.57,0.8,0.57,1.38c0,0.45-0.13,0.9-0.38,1.34s-0.73,1-1.43,1.68
		l-1.56,1.53v0.04h3.67V10.83z"/>
	<path d="M117.16,7.77c0-1.4,0.27-2.45,0.82-3.15s1.35-1.04,2.42-1.04c0.37,0,0.66,0.03,0.87,0.09v0.7
		c-0.25-0.08-0.54-0.12-0.86-0.12c-0.77,0-1.35,0.24-1.75,0.72s-0.62,1.23-0.66,2.25h0.06c0.36-0.56,0.92-0.84,1.7-0.84
		c0.64,0,1.15,0.19,1.52,0.58s0.55,0.91,0.55,1.58c0,0.74-0.2,1.33-0.61,1.75s-0.95,0.64-1.64,0.64c-0.74,0-1.32-0.28-1.76-0.83
		S117.16,8.76,117.16,7.77z M119.56,10.23c0.46,0,0.82-0.15,1.08-0.44s0.38-0.71,0.38-1.26c0-0.47-0.12-0.84-0.36-1.11
		s-0.59-0.41-1.06-0.41c-0.29,0-0.56,0.06-0.81,0.18s-0.44,0.29-0.58,0.5s-0.22,0.43-0.22,0.66c0,0.34,0.06,0.65,0.2,0.94
		s0.31,0.52,0.55,0.69S119.25,10.23,119.56,10.23z"/>
	<path d="M124.01,9.66l0.07,0.11c-0.08,0.33-0.21,0.7-0.37,1.14s-0.33,0.83-0.5,1.2h-0.61c0.09-0.34,0.18-0.76,0.29-1.25
		s0.18-0.9,0.22-1.2H124.01z"/>
	<path d="M129.94,10.83h-4.69v-0.7l1.88-1.89c0.57-0.58,0.95-0.99,1.13-1.24s0.32-0.49,0.41-0.72s0.14-0.49,0.14-0.76
		c0-0.38-0.12-0.68-0.35-0.91s-0.55-0.33-0.96-0.33c-0.3,0-0.58,0.05-0.84,0.15s-0.56,0.27-0.89,0.53l-0.43-0.55
		c0.66-0.55,1.37-0.82,2.15-0.82c0.67,0,1.2,0.17,1.58,0.52s0.57,0.8,0.57,1.38c0,0.45-0.13,0.9-0.38,1.34s-0.73,1-1.43,1.68
		l-1.56,1.53v0.04h3.67V10.83z"/>
	<path d="M131.86,10.83l2.96-6.39h-3.89V3.69h4.75v0.65l-2.92,6.49H131.86z"/>
	<path d="M141.41,7.25c0,1.23-0.19,2.15-0.58,2.76s-0.98,0.91-1.78,0.91c-0.77,0-1.35-0.31-1.75-0.94s-0.6-1.54-0.6-2.74
		c0-1.24,0.19-2.17,0.58-2.77s0.98-0.9,1.77-0.9c0.77,0,1.36,0.31,1.77,0.94S141.41,6.05,141.41,7.25z M137.51,7.25
		c0,1.04,0.12,1.79,0.37,2.27s0.63,0.71,1.17,0.71c0.54,0,0.93-0.24,1.17-0.72s0.36-1.23,0.36-2.26s-0.12-1.78-0.36-2.25
		s-0.63-0.72-1.17-0.72c-0.53,0-0.92,0.24-1.17,0.71S137.51,6.21,137.51,7.25z"/>
</g>
<rect x="0.25" y="98.26" class="st2" width="132.33" height="23"/>
<rect x="252.41" y="98.26" class="st2" width="132.33" height="23"/>
<g>
	<path d="M356.64,94.7c-0.93,0-1.65-0.29-2.16-0.86s-0.76-1.38-0.76-2.43c0-1.07,0.26-1.9,0.78-2.49s1.25-0.88,2.21-0.88
		c0.31,0,0.62,0.03,0.93,0.1s0.55,0.14,0.73,0.23l-0.3,0.83c-0.21-0.09-0.45-0.16-0.7-0.21s-0.48-0.08-0.67-0.08
		c-1.3,0-1.96,0.83-1.96,2.5c0,0.79,0.16,1.39,0.48,1.82s0.79,0.63,1.42,0.63c0.54,0,1.08-0.12,1.65-0.35v0.86
		C357.83,94.59,357.29,94.7,356.64,94.7z"/>
	<path d="M364.18,94.58v-4.15c0-0.52-0.12-0.91-0.36-1.17s-0.61-0.39-1.12-0.39c-0.68,0-1.17,0.18-1.48,0.55s-0.47,0.97-0.47,1.8
		v3.36h-0.97v-9.12h0.97v2.76c0,0.33-0.02,0.61-0.05,0.83h0.06c0.19-0.31,0.46-0.55,0.82-0.73s0.76-0.27,1.21-0.27
		c0.79,0,1.37,0.19,1.77,0.56s0.59,0.97,0.59,1.78v4.19H364.18z"/>
	<path d="M370.08,88.04c0.29,0,0.54,0.02,0.77,0.07l-0.13,0.9c-0.27-0.06-0.5-0.09-0.7-0.09c-0.52,0-0.96,0.21-1.33,0.63
		s-0.55,0.95-0.55,1.58v3.45h-0.97v-6.42h0.8l0.11,1.19h0.05c0.24-0.42,0.53-0.74,0.86-0.97S369.68,88.04,370.08,88.04z"/>
	<path d="M377.23,94.58h-5.63v-0.84l2.26-2.27c0.69-0.7,1.14-1.19,1.36-1.49s0.38-0.59,0.49-0.87s0.16-0.58,0.16-0.91
		c0-0.46-0.14-0.82-0.42-1.09s-0.66-0.4-1.15-0.4c-0.36,0-0.69,0.06-1.01,0.18s-0.67,0.33-1.06,0.64l-0.52-0.66
		c0.79-0.66,1.65-0.98,2.58-0.98c0.8,0,1.44,0.21,1.89,0.62s0.69,0.97,0.69,1.66c0,0.54-0.15,1.08-0.46,1.61s-0.88,1.2-1.71,2.02
		l-1.88,1.83v0.05h4.41V94.58z"/>
	<path d="M382.07,94.58h-0.95v-6.11c0-0.51,0.02-0.99,0.05-1.44c-0.08,0.08-0.17,0.17-0.28,0.26s-0.57,0.47-1.39,1.14l-0.52-0.67
		l2.27-1.75h0.82V94.58z"/>
</g>
<circle class="st4" cx="252.26" cy="109.76" r="11.5"/>
<g>
	<path d="M257.32,89.66c0,0.46-0.13,0.83-0.38,1.12s-0.62,0.48-1.09,0.58v0.04c0.57,0.07,1,0.25,1.27,0.55s0.42,0.68,0.42,1.15
		c0,0.68-0.24,1.2-0.71,1.57s-1.14,0.55-2.01,0.55c-0.38,0-0.72-0.03-1.04-0.09s-0.62-0.16-0.92-0.3v-0.77
		c0.31,0.15,0.64,0.27,0.99,0.35s0.68,0.12,0.99,0.12c1.23,0,1.85-0.48,1.85-1.45c0-0.87-0.68-1.3-2.04-1.3h-0.7v-0.7h0.71
		c0.56,0,1-0.12,1.32-0.37s0.49-0.59,0.49-1.02c0-0.35-0.12-0.62-0.36-0.82s-0.56-0.3-0.97-0.3c-0.31,0-0.61,0.04-0.88,0.13
		s-0.59,0.24-0.95,0.47l-0.41-0.55c0.29-0.23,0.63-0.41,1.01-0.54s0.79-0.2,1.21-0.2c0.69,0,1.23,0.16,1.62,0.48
		S257.32,89.11,257.32,89.66z"/>
	<path d="M258.7,92.07c0-1.4,0.27-2.45,0.82-3.15s1.35-1.04,2.42-1.04c0.37,0,0.66,0.03,0.87,0.09v0.7
		c-0.25-0.08-0.54-0.12-0.86-0.12c-0.77,0-1.35,0.24-1.75,0.72s-0.62,1.23-0.66,2.25h0.06c0.36-0.56,0.92-0.84,1.7-0.84
		c0.64,0,1.15,0.19,1.52,0.58s0.55,0.91,0.55,1.58c0,0.74-0.2,1.33-0.61,1.75s-0.95,0.64-1.64,0.64c-0.74,0-1.32-0.28-1.76-0.83
		S258.7,93.06,258.7,92.07z M261.09,94.53c0.46,0,0.82-0.15,1.08-0.44s0.38-0.71,0.38-1.26c0-0.47-0.12-0.84-0.36-1.11
		s-0.59-0.41-1.06-0.41c-0.29,0-0.56,0.06-0.81,0.18s-0.44,0.29-0.58,0.5s-0.22,0.43-0.22,0.66c0,0.34,0.06,0.65,0.2,0.94
		s0.31,0.52,0.55,0.69S260.79,94.53,261.09,94.53z"/>
	<path d="M265.55,93.96l0.07,0.11c-0.08,0.33-0.21,0.7-0.37,1.14s-0.33,0.83-0.5,1.2h-0.61c0.09-0.34,0.18-0.76,0.29-1.25
		s0.18-0.9,0.22-1.2H265.55z"/>
	<path d="M271.81,93.48h-1.06v1.64h-0.78v-1.64h-3.47v-0.71l3.39-4.83h0.86v4.8h1.06V93.48z M269.98,92.74v-2.37
		c0-0.47,0.02-0.99,0.05-1.58h-0.04c-0.16,0.31-0.3,0.57-0.44,0.78l-2.23,3.17H269.98z"/>
	<path d="M277.19,95.12h-4.69v-0.7l1.88-1.89c0.57-0.58,0.95-0.99,1.13-1.24s0.32-0.49,0.41-0.72s0.14-0.49,0.14-0.76
		c0-0.38-0.12-0.68-0.35-0.91s-0.55-0.33-0.96-0.33c-0.3,0-0.58,0.05-0.84,0.15s-0.56,0.27-0.89,0.53l-0.43-0.55
		c0.66-0.55,1.37-0.82,2.15-0.82c0.67,0,1.2,0.17,1.58,0.52s0.57,0.8,0.57,1.38c0,0.45-0.13,0.9-0.38,1.34s-0.73,1-1.43,1.68
		l-1.56,1.53v0.04h3.67V95.12z"/>
	<path d="M282.95,91.54c0,1.23-0.19,2.15-0.58,2.76s-0.98,0.91-1.78,0.91c-0.77,0-1.35-0.31-1.75-0.94s-0.6-1.54-0.6-2.74
		c0-1.24,0.19-2.17,0.58-2.77s0.98-0.9,1.77-0.9c0.77,0,1.36,0.31,1.77,0.94S282.95,90.35,282.95,91.54z M279.05,91.54
		c0,1.04,0.12,1.79,0.37,2.27s0.63,0.71,1.17,0.71c0.54,0,0.93-0.24,1.17-0.72s0.36-1.23,0.36-2.26s-0.12-1.78-0.36-2.25
		s-0.63-0.72-1.17-0.72c-0.53,0-0.92,0.24-1.17,0.71S279.05,90.5,279.05,91.54z"/>
	<path d="M285.16,93.96l0.07,0.11c-0.08,0.33-0.21,0.7-0.37,1.14s-0.33,0.83-0.5,1.2h-0.61c0.09-0.34,0.18-0.76,0.29-1.25
		s0.18-0.9,0.22-1.2H285.16z"/>
	<path d="M288.75,87.88c0.65,0,1.17,0.15,1.55,0.45s0.57,0.72,0.57,1.25c0,0.35-0.11,0.67-0.33,0.96s-0.57,0.55-1.04,0.79
		c0.58,0.28,0.99,0.57,1.24,0.87s0.37,0.66,0.37,1.06c0,0.59-0.21,1.07-0.62,1.42s-0.98,0.53-1.7,0.53c-0.76,0-1.35-0.17-1.76-0.5
		s-0.62-0.81-0.62-1.42c0-0.82,0.5-1.45,1.49-1.91c-0.45-0.25-0.77-0.53-0.97-0.82s-0.29-0.62-0.29-0.99c0-0.52,0.19-0.93,0.57-1.24
		S288.11,87.88,288.75,87.88z M287.21,93.32c0,0.39,0.14,0.69,0.41,0.91s0.65,0.33,1.15,0.33c0.48,0,0.86-0.11,1.13-0.34
		s0.41-0.54,0.41-0.94c0-0.32-0.13-0.6-0.38-0.84s-0.7-0.48-1.33-0.72c-0.48,0.21-0.84,0.44-1.05,0.69S287.21,92.97,287.21,93.32z
		 M288.74,88.54c-0.41,0-0.73,0.1-0.96,0.29s-0.35,0.46-0.35,0.78c0,0.3,0.1,0.56,0.29,0.77s0.55,0.43,1.06,0.64
		c0.47-0.2,0.79-0.41,0.99-0.63s0.29-0.49,0.29-0.79c0-0.33-0.12-0.59-0.35-0.78S289.15,88.54,288.74,88.54z"/>
	<path d="M292.19,92.07c0-1.4,0.27-2.45,0.82-3.15s1.35-1.04,2.42-1.04c0.37,0,0.66,0.03,0.87,0.09v0.7
		c-0.25-0.08-0.54-0.12-0.86-0.12c-0.77,0-1.35,0.24-1.75,0.72s-0.62,1.23-0.66,2.25h0.06c0.36-0.56,0.92-0.84,1.7-0.84
		c0.64,0,1.15,0.19,1.52,0.58s0.55,0.91,0.55,1.58c0,0.74-0.2,1.33-0.61,1.75s-0.95,0.64-1.64,0.64c-0.74,0-1.32-0.28-1.76-0.83
		S292.19,93.06,292.19,92.07z M294.58,94.53c0.46,0,0.82-0.15,1.08-0.44s0.38-0.71,0.38-1.26c0-0.47-0.12-0.84-0.36-1.11
		s-0.59-0.41-1.06-0.41c-0.29,0-0.56,0.06-0.81,0.18s-0.44,0.29-0.58,0.5s-0.22,0.43-0.22,0.66c0,0.34,0.06,0.65,0.2,0.94
		s0.31,0.52,0.55,0.69S294.28,94.53,294.58,94.53z"/>
	<path d="M300.05,90.76c0.75,0,1.34,0.19,1.77,0.56s0.65,0.88,0.65,1.53c0,0.74-0.24,1.32-0.71,1.74s-1.12,0.63-1.95,0.63
		c-0.8,0-1.42-0.13-1.84-0.39v-0.78c0.23,0.15,0.51,0.26,0.85,0.34s0.67,0.12,1,0.12c0.57,0,1.02-0.14,1.34-0.41
		s0.48-0.66,0.48-1.17c0-1-0.61-1.49-1.83-1.49c-0.31,0-0.72,0.05-1.24,0.14l-0.42-0.27l0.27-3.34h3.55v0.75h-2.86l-0.18,2.14
		C299.31,90.8,299.68,90.76,300.05,90.76z"/>
</g>
<g>
	<path d="M253.34,103.93c-1.41,0-2.53,0.47-3.34,1.41s-1.23,2.23-1.23,3.86c0,1.68,0.39,2.98,1.18,3.9s1.91,1.38,3.37,1.38
		c0.9,0,1.92-0.16,3.07-0.48v1.31c-0.89,0.33-1.99,0.5-3.3,0.5c-1.89,0-3.35-0.57-4.38-1.72s-1.54-2.78-1.54-4.9
		c0-1.32,0.25-2.48,0.74-3.48s1.21-1.76,2.14-2.3s2.03-0.81,3.3-0.81c1.35,0,2.53,0.25,3.53,0.74l-0.63,1.28
		C255.29,104.15,254.32,103.93,253.34,103.93z"/>
</g>
<g>
	<circle class="st4" cx="88.28" cy="25.46" r="11.5"/>
	<g>
		<path d="M89.59,20.19c-1.41,0-2.53,0.47-3.34,1.41s-1.23,2.23-1.23,3.86c0,1.68,0.39,2.98,1.18,3.9s1.91,1.38,3.37,1.38
			c0.9,0,1.92-0.16,3.07-0.48v1.31c-0.89,0.33-1.99,0.5-3.3,0.5c-1.89,0-3.35-0.57-4.38-1.72s-1.54-2.78-1.54-4.9
			c0-1.32,0.25-2.48,0.74-3.48s1.21-1.76,2.14-2.3s2.03-0.81,3.3-0.81c1.35,0,2.53,0.25,3.53,0.74l-0.63,1.28
			C91.54,20.42,90.57,20.19,89.59,20.19z"/>
	</g>
</g>
<g>
	<circle class="st3" cx="133.37" cy="109.76" r="11.5"/>
	<g>
		<path d="M134.68,104.49c-1.41,0-2.53,0.47-3.34,1.41s-1.23,2.23-1.23,3.86c0,1.68,0.39,2.98,1.18,3.9s1.91,1.38,3.37,1.38
			c0.9,0,1.92-0.16,3.07-0.48v1.31c-0.89,0.33-1.99,0.5-3.3,0.5c-1.89,0-3.35-0.57-4.38-1.72s-1.54-2.78-1.54-4.9
			c0-1.32,0.25-2.48,0.74-3.48s1.21-1.76,2.14-2.3s2.03-0.81,3.3-0.81c1.35,0,2.53,0.25,3.53,0.74l-0.63,1.28
			C136.62,104.72,135.65,104.49,134.68,104.49z"/>
	</g>
</g>
<g>
	<path class="st5" d="M184.45,29.75h-4.31l1.81-8.57h4.31l-0.19,0.9h-3.32l-0.57,2.75h3.09l-0.17,0.89H182l-0.67,3.14h3.31
		L184.45,29.75z"/>
	<path class="st5" d="M188.62,29.75h-1.01l1.62-7.68h-2.38l0.19-0.88h5.77l-0.18,0.88h-2.39L188.62,29.75z"/>
	<path class="st5" d="M194.55,28.59c0.24-0.56,0.55-1.22,0.95-1.98l2.81-5.43h1.12l-4.58,8.57h-1.05l-0.95-8.57h1l0.57,5.45
		c0.08,0.77,0.12,1.42,0.12,1.96H194.55z"/>
	<path class="st5" d="M199.1,27.26c0-0.82,0.12-1.63,0.35-2.43s0.56-1.49,0.96-2.06s0.88-1,1.44-1.28s1.2-0.43,1.92-0.43
		c0.43,0,0.79,0.04,1.08,0.13l-0.21,0.85c-0.27-0.09-0.6-0.13-1-0.13c-0.83,0-1.52,0.29-2.09,0.87s-0.98,1.45-1.25,2.6h0.05
		c0.23-0.31,0.52-0.55,0.86-0.74s0.72-0.28,1.13-0.28c0.6,0,1.08,0.19,1.43,0.58s0.53,0.91,0.53,1.58c0,0.63-0.13,1.2-0.39,1.73
		s-0.61,0.92-1.06,1.2s-0.96,0.41-1.53,0.41c-0.71,0-1.26-0.22-1.65-0.67S199.1,28.1,199.1,27.26z M201.44,29.04
		c0.37,0,0.69-0.11,0.98-0.32s0.51-0.5,0.67-0.87s0.24-0.78,0.24-1.22c0-0.97-0.43-1.45-1.29-1.45c-0.26,0-0.51,0.06-0.75,0.17
		s-0.46,0.26-0.64,0.45s-0.33,0.39-0.42,0.61s-0.14,0.53-0.14,0.91c0,0.54,0.12,0.96,0.35,1.27S201,29.04,201.44,29.04z"/>
</g>
<g>
	<path class="st5" d="M50.99,110.42l-0.76,3.56h-1l1.81-8.57h1.88c1.74,0,2.61,0.71,2.61,2.14c0,1.36-0.72,2.24-2.16,2.63l1.4,3.79
		h-1.09l-1.22-3.56H50.99z M51.85,106.29c-0.4,1.93-0.62,3.02-0.68,3.28h0.98c0.75,0,1.33-0.17,1.74-0.5s0.61-0.81,0.61-1.43
		c0-0.47-0.13-0.82-0.4-1.03s-0.69-0.32-1.29-0.32H51.85z"/>
	<path class="st5" d="M63.8,105.42l-1.2,5.66c-0.21,1.03-0.6,1.79-1.16,2.28s-1.32,0.74-2.28,0.74c-0.9,0-1.56-0.2-2-0.61
		s-0.65-0.99-0.65-1.75c0-0.32,0.05-0.71,0.14-1.18l1.11-5.14h1l-1.12,5.22c-0.09,0.41-0.13,0.78-0.13,1.1
		c0,0.46,0.14,0.82,0.43,1.08s0.71,0.4,1.28,0.4c0.67,0,1.19-0.17,1.57-0.51s0.65-0.91,0.82-1.7l1.2-5.59H63.8z"/>
	<path class="st5" d="M70.34,113.98h-1.06l-2.7-7.17h-0.04c-0.12,0.86-0.27,1.68-0.43,2.45l-1.01,4.72h-0.95l1.81-8.57h1.05
		l2.69,7.15h0.04c0.12-0.88,0.26-1.67,0.42-2.37l1.02-4.78h0.96L70.34,113.98z"/>
	<path class="st5" d="M77.69,113.98h-1.05l-1.25-3.76l-2.82,3.76h-1.09l3.49-4.55l-1.54-4.02h1.01l1.19,3.3l2.6-3.3h1.09l-3.25,4.07
		L77.69,113.98z"/>
	<path class="st5" d="M81.77,113.98h-1.01l1.15-5.35c0.23-1.02,0.4-1.72,0.52-2.1c-0.2,0.21-0.47,0.42-0.81,0.65l-1.04,0.64
		l-0.47-0.74l2.63-1.66h0.87L81.77,113.98z"/>
</g>
<g>
	<path class="st5" d="M303.14,110.42l-0.76,3.56h-1l1.81-8.57h1.88c1.74,0,2.61,0.71,2.61,2.14c0,1.36-0.72,2.24-2.16,2.63l1.4,3.79
		h-1.09l-1.22-3.56H303.14z M304,106.29c-0.4,1.93-0.62,3.02-0.68,3.28h0.98c0.75,0,1.33-0.17,1.74-0.5s0.61-0.81,0.61-1.43
		c0-0.47-0.13-0.82-0.4-1.03s-0.69-0.32-1.29-0.32H304z"/>
	<path class="st5" d="M315.96,105.42l-1.2,5.66c-0.21,1.03-0.6,1.79-1.16,2.28c-0.56,0.49-1.32,0.74-2.28,0.74
		c-0.9,0-1.56-0.2-2-0.61s-0.65-0.99-0.65-1.75c0-0.32,0.05-0.71,0.14-1.18l1.11-5.14h1l-1.12,5.22c-0.09,0.41-0.13,0.78-0.13,1.1
		c0,0.46,0.14,0.82,0.43,1.08s0.71,0.4,1.28,0.4c0.67,0,1.19-0.17,1.57-0.51s0.65-0.91,0.82-1.7l1.2-5.59H315.96z"/>
	<path class="st5" d="M322.5,113.98h-1.06l-2.7-7.17h-0.04c-0.12,0.86-0.27,1.68-0.43,2.45l-1.01,4.72h-0.95l1.81-8.57h1.05
		l2.69,7.15h0.04c0.12-0.88,0.26-1.67,0.42-2.37l1.02-4.78h0.96L322.5,113.98z"/>
	<path class="st5" d="M329.85,113.98h-1.05l-1.25-3.76l-2.82,3.76h-1.09l3.49-4.55l-1.54-4.02h1.01l1.19,3.3l2.6-3.3h1.09
		l-3.25,4.07L329.85,113.98z"/>
	<path class="st5" d="M333.92,113.98h-1.01l1.15-5.35c0.23-1.02,0.4-1.72,0.52-2.1c-0.2,0.21-0.47,0.42-0.81,0.65l-1.04,0.64
		l-0.47-0.74l2.63-1.66h0.87L333.92,113.98z"/>
</g>
<g>
	<line class="st6" x1="83.52" y1="117.36" x2="49.31" y2="117.36"/>
	<g>
		<line class="st7" x1="83.52" y1="117.36" x2="52.33" y2="117.36"/>
		<g>
			<path class="st5" d="M49.31,117.36c1.42-0.53,3.18-1.43,4.27-2.38l-0.86,2.38l0.86,2.38C52.49,118.79,50.73,117.89,49.31,117.36z
				"/>
		</g>
	</g>
</g>
<g>
	<line class="st6" x1="175.39" y1="33.28" x2="209.6" y2="33.28"/>
	<g>
		<line class="st7" x1="175.39" y1="33.28" x2="206.58" y2="33.28"/>
		<g>
			<path class="st5" d="M209.6,33.28c-1.42,0.53-3.18,1.43-4.27,2.38l0.86-2.38l-0.86-2.38C206.42,31.86,208.18,32.76,209.6,33.28z"
				/>
		</g>
	</g>
</g>
<g>
	<line class="st6" x1="335.68" y1="117.36" x2="301.47" y2="117.36"/>
	<g>
		<line class="st7" x1="335.68" y1="117.36" x2="304.49" y2="117.36"/>
		<g>
			<path class="st5" d="M301.47,117.36c1.42-0.53,3.18-1.43,4.27-2.38l-0.86,2.38l0.86,2.38
				C304.65,118.79,302.89,117.89,301.47,117.36z"/>
		</g>
	</g>
</g>
<g>
</g>
<g>
</g>
<g>
</g>
<g>
</g>
<g>
</g>
<g>
</g>
<g>
</g>
</svg>
