<?xml version="1.0" encoding="utf-8"?>
<!-- Generator: Adobe Illustrator 24.2.3, SVG Export Plug-In . SVG Version: 6.00 Build 0)  -->
<svg version="1.1" id="Layer_1" xmlns="http://www.w3.org/2000/svg" xmlns:xlink="http://www.w3.org/1999/xlink" x="0px" y="0px"
	 viewBox="0 0 269.96 43.84" style="enable-background:new 0 0 269.96 43.84;" xml:space="preserve">
<style type="text/css">
	.st0{fill:#FFB441;stroke:#231F20;stroke-miterlimit:10;}
</style>
<g>
	<path class="st0" d="M0.5,0.5h11.46l14.88,26.4h0.12V0.5h10.5v42.84H26l-14.88-26.7H11v26.7H0.5V0.5z"/>
	<path class="st0" d="M45.08,0.5h11.16v42.84H45.08V0.5z"/>
	<path class="st0" d="M63.98,0.5h21.84c7.56,0,15,3.42,15,12.06c0,4.62-2.22,9-6.72,10.74v0.12c4.56,1.08,5.88,6.18,6.24,10.26
		c0.12,1.8,0.3,8.1,1.8,9.66H91.1c-0.96-1.44-1.14-5.64-1.26-6.84c-0.3-4.32-1.02-8.76-6.24-8.76h-8.46v15.6H63.98V0.5z M75.14,19.1
		h9.36c3.36,0,5.16-1.8,5.16-5.04c0-3.18-2.52-4.62-5.64-4.62h-8.88V19.1z"/>
	<path class="st0" d="M129.5,43.34h-12.84L103.16,0.5h11.64l8.4,31.86h0.12l8.4-31.86h11.64L129.5,43.34z"/>
	<path class="st0" d="M155.18,0.5h11.34l16.02,42.84H170.9l-2.64-7.68h-14.94l-2.7,7.68h-11.46L155.18,0.5z M155.9,27.38h9.72
		l-4.74-15h-0.12L155.9,27.38z"/>
	<path class="st0" d="M185.66,0.5h11.46L212,26.9h0.12V0.5h10.5v42.84h-11.46l-14.88-26.7h-0.12v26.7h-10.5V0.5z"/>
	<path class="st0" d="M241.88,0.5h11.34l16.02,42.84H257.6l-2.64-7.68h-14.94l-2.7,7.68h-11.46L241.88,0.5z M242.6,27.38h9.72
		l-4.74-15h-0.12L242.6,27.38z"/>
</g>
<g>
</g>
<g>
</g>
<g>
</g>
<g>
</g>
<g>
</g>
<g>
</g>
</svg>
