<?xml version="1.0" encoding="iso-8859-1"?>
<!-- Generator: Adobe Illustrator 19.1.1, SVG Export Plug-In . SVG Version: 6.00 Build 0)  -->
<svg version="1.1"  xmlns="http://www.w3.org/2000/svg" xmlns:xlink="http://www.w3.org/1999/xlink" x="0px" y="0px"
	 viewBox="0 0 48 48" style="enable-background:new 0 0 48 48;" xml:space="preserve">
<path style="fill:#FEB64F;" d="M34.682,21.604l-1.759-6.154c-0.093-0.326-0.269-0.624-0.509-0.864C32.149,14.321,30.219,12,24,12
	c-6.188,0-8.149,2.321-8.414,2.586c-0.24,0.24-0.416,0.538-0.509,0.864l-1.759,6.154l2.576,3.185c0.501-0.251,0.874-0.7,1.028-1.239
	L18,19.779v6.354l-7.158,1.952c-1.032,0.281-1.771,1.19-1.837,2.258c-0.066,1.066,0.554,2.059,1.543,2.467l7.16,2.948
	c-0.672,0.693-0.91,1.743-0.519,2.693C17.586,39.415,18.518,40,19.501,40c0.317,0,0.64-0.063,0.951-0.19L24,38.35l3.548,1.461
	c0.311,0.127,0.634,0.19,0.951,0.19c0.983,0,1.915-0.585,2.313-1.549c0.391-0.95,0.153-2-0.519-2.693l7.16-2.948
	c0.989-0.408,1.609-1.4,1.543-2.467c-0.066-1.068-0.805-1.977-1.837-2.258L30,26.134V19.78l1.077,3.77
	c0.154,0.539,0.527,0.988,1.028,1.239L34.682,21.604z"/>
<path style="fill:none;stroke:#FFB74D;stroke-width:4;stroke-linecap:round;stroke-linejoin:round;stroke-miterlimit:10;" d="M9,26
	l6-3l2-7c0,0,2-2,7-2"/>
<path style="fill:none;stroke:#FFB74D;stroke-width:4;stroke-linecap:round;stroke-linejoin:round;stroke-miterlimit:10;" d="M39,26
	l-6-3l-2-7c0,0-2-2-7-2"/>
<path style="fill:#FF754C;" d="M34.682,21.604l-1.759-6.154c-0.093-0.326-0.269-0.624-0.509-0.864C32.149,14.321,30.219,12,24,12
	c-6.188,0-8.149,2.321-8.414,2.586c-0.24,0.24-0.416,0.538-0.509,0.864l-1.759,6.154l2.576,3.185c0.501-0.251,0.874-0.7,1.028-1.239
	L18,19.779v6.354l-7.158,1.952c-1.032,0.281-1.771,1.19-1.837,2.258c-0.066,1.066,0.554,2.059,1.543,2.467l7.16,2.948
	c0-2.009,5.105-3.415,5.105-3.415l7.48,3.415l7.16-2.948c0.989-0.408,1.609-1.4,1.543-2.467c-0.066-1.068-0.805-1.977-1.837-2.258
	L30,26.134V19.78l1.077,3.77c0.154,0.539,0.527,0.988,1.028,1.239L34.682,21.604z"/>
<path style="fill:#FFB74D;" d="M24,2c2.209,0,4,1.79,4,4c0,2.208-1.791,4-4,4s-4-1.792-4-4C20,3.79,21.791,2,24,2"/>
<rect x="14" y="43" style="fill:#546E7A;" width="20" height="2"/>
<path style="fill:#F9A825;" d="M30.811,38.451c0.391-0.95,0.152-2-0.518-2.693L24,38.35l0,0l3.548,1.461
	C27.859,39.938,28.182,40,28.499,40C29.482,40,30.414,39.416,30.811,38.451z"/>
<g>
	<g>
		<polygon style="fill:#E64A19;" points="25.957,32.137 13.176,28.531 23.981,32.95 		"/>
		<polygon style="fill:#E64A19;" points="31.003,35.466 32.213,34.969 32.212,34.968 		"/>
		<path style="fill:#E64A19;" d="M30.268,35.769c0.096,0.099,0.201,0.19,0.279,0.302c-0.077-0.109-0.16-0.215-0.254-0.312
			L30.268,35.769z"/>
	</g>
</g>
<path style="fill:#E64A19;" d="M17.707,35.758c-0.094,0.098-0.177,0.203-0.254,0.313c0.265-0.379,0.635-0.694,1.095-0.883
	l16.276-6.656l-17.033,4.805c-0.846,0.348-1.525,0.928-2.004,1.633L17.707,35.758z"/>
</svg>
